<?xml version="1.0" standalone="no"?>
<!DOCTYPE svg PUBLIC "-//W3C//DTD SVG 20010904//EN"
 "http://www.w3.org/TR/2001/REC-SVG-20010904/DTD/svg10.dtd">
<svg version="1.0" xmlns="http://www.w3.org/2000/svg"
 width="1280.000000pt" height="1145.000000pt" viewBox="0 0 1280.000000 1145.000000"
 preserveAspectRatio="xMidYMid meet">
<metadata>
Created by potrace 1.15, written by Peter Selinger 2001-2017
</metadata>
<g transform="translate(0.000000,1145.000000) scale(0.100000,-0.100000)"
fill="#000000" stroke="none">
<path d="M5581 11439 c-21 -8 -23 -14 -18 -50 11 -81 117 -212 294 -362 50
-43 94 -86 98 -95 10 -27 18 -148 11 -167 -6 -16 -8 -16 -31 -1 -13 9 -27 16
-30 16 -14 0 -2 -49 30 -117 35 -75 43 -117 26 -127 -14 -9 -166 47 -351 129
-195 86 -230 98 -290 93 -37 -2 -46 -7 -48 -24 -4 -25 33 -44 86 -44 20 0 69
-12 107 -26 39 -14 97 -34 130 -46 69 -23 270 -124 286 -145 14 -17 -5 -43
-32 -43 -10 0 -63 18 -117 40 -111 44 -198 65 -317 75 -96 8 -168 -6 -163 -33
3 -14 25 -19 143 -29 152 -12 281 -36 332 -60 53 -25 55 -78 4 -89 -65 -14
-202 -84 -335 -172 -88 -58 -241 -204 -304 -290 -68 -92 -129 -203 -148 -270
-29 -98 1 -259 56 -305 72 -61 161 -61 352 2 126 41 172 49 182 32 9 -14 -24
-37 -123 -85 -85 -41 -102 -46 -165 -46 -39 0 -93 7 -120 15 -66 20 -86 19
-86 -4 0 -21 44 -61 66 -61 7 0 20 -7 28 -16 15 -14 14 -20 -11 -67 -32 -59
-103 -137 -124 -137 -8 0 -36 16 -63 35 -27 19 -53 35 -57 35 -4 0 -38 18 -76
40 -109 63 -226 99 -320 100 -93 0 -106 -18 -47 -70 34 -29 35 -32 15 -37 -12
-3 -21 -11 -21 -19 0 -21 40 -42 115 -63 40 -12 78 -29 93 -45 l26 -25 -25
-10 c-14 -5 -124 -12 -245 -16 -202 -7 -221 -6 -237 10 -75 75 -161 395 -255
950 l-17 100 -46 6 c-65 10 -99 30 -139 84 -32 43 -119 119 -180 156 -25 16
-70 32 -125 44 -20 4 -59 36 -116 96 l-85 89 -55 0 -55 0 -85 88 c-71 75 -91
91 -131 100 -31 8 -69 30 -115 68 -37 31 -87 65 -109 74 -88 38 -131 123 -121
240 3 36 2 72 -3 80 -5 9 -32 15 -72 17 -52 3 -70 0 -103 -19 -58 -34 -66 -66
-32 -131 76 -145 281 -373 377 -419 30 -14 88 -55 129 -91 40 -36 116 -89 169
-119 52 -29 115 -72 141 -94 25 -23 69 -53 97 -67 28 -14 107 -78 177 -141 70
-64 131 -116 137 -116 12 0 19 -15 93 -195 30 -71 60 -155 67 -185 29 -124 78
-257 175 -467 78 -169 126 -258 203 -375 56 -84 110 -174 122 -200 21 -47 22
-48 66 -48 25 0 54 -5 65 -10 24 -13 50 -62 40 -78 -10 -16 -114 -61 -161 -68
-48 -8 -90 -38 -90 -65 0 -26 15 -24 122 17 114 44 203 50 259 18 62 -36 53
-94 -18 -120 -27 -9 -89 -34 -138 -55 -50 -21 -104 -41 -120 -45 -37 -9 -109
-57 -130 -86 -31 -46 -10 -88 45 -88 11 0 47 9 79 20 32 10 112 27 177 36 112
17 121 17 154 0 19 -9 46 -26 59 -36 l24 -20 -29 -42 c-59 -87 -327 -348 -357
-348 -7 0 20 33 59 73 113 116 235 279 220 294 -14 14 -1031 -1020 -1107
-1127 -18 -25 -96 -110 -174 -190 -78 -80 -167 -176 -197 -215 -67 -85 -233
-247 -276 -269 -42 -22 -113 -111 -170 -214 -31 -57 -71 -110 -118 -158 -40
-39 -75 -80 -78 -91 -8 -25 -39 -39 -102 -48 -109 -15 -252 -60 -354 -113 -58
-30 -127 -63 -155 -74 -80 -31 -147 -68 -195 -108 -25 -20 -86 -58 -137 -84
-145 -75 -293 -231 -293 -310 0 -39 28 -76 57 -76 26 0 100 47 121 78 11 15
25 44 32 66 25 77 121 148 228 167 64 12 101 29 154 71 56 44 125 71 165 65
40 -7 81 6 144 45 78 47 98 35 56 -35 -29 -47 -219 -241 -267 -272 -19 -12
-99 -82 -178 -156 -233 -219 -322 -298 -350 -311 -14 -7 -41 -33 -60 -58 -18
-25 -109 -130 -200 -234 -260 -294 -369 -440 -478 -636 -31 -58 -76 -134 -99
-170 -91 -144 -259 -499 -306 -648 -12 -37 -36 -103 -54 -147 -18 -44 -43
-125 -54 -180 -12 -55 -31 -127 -42 -161 -54 -165 -51 -483 5 -579 32 -54 116
-131 169 -155 130 -60 704 24 963 141 35 15 101 40 146 54 45 14 88 34 95 45
7 10 30 24 51 30 20 7 65 27 99 45 83 45 136 62 283 91 177 35 423 117 558
186 62 32 119 58 126 58 7 0 51 24 97 53 46 29 120 72 164 96 44 24 109 63
143 88 35 24 87 55 115 69 83 42 153 86 487 304 374 244 424 275 480 295 24 8
65 35 91 60 58 54 94 60 110 18 13 -33 5 -162 -12 -211 -13 -38 -9 -61 25
-157 41 -117 58 -233 63 -455 4 -153 9 -211 19 -227 13 -21 13 -23 -4 -23 -10
0 -27 -9 -36 -19 -25 -27 -86 -171 -86 -202 0 -14 -13 -53 -29 -85 -16 -32
-59 -120 -95 -195 -76 -158 -142 -254 -269 -392 -108 -117 -317 -379 -394
-495 -30 -46 -71 -122 -89 -168 -37 -91 -87 -276 -99 -360 -6 -45 -4 -54 18
-80 l25 -28 70 27 c39 16 82 39 97 53 25 23 27 30 23 79 -3 33 -12 63 -23 75
-15 16 -17 31 -13 90 7 97 54 192 107 220 40 20 49 35 76 134 20 71 55 110
116 126 24 7 50 17 56 22 7 6 34 51 60 100 57 107 109 168 145 168 27 0 119
63 144 98 8 12 26 71 39 132 31 142 55 196 92 211 64 26 74 35 99 85 23 48 25
61 20 121 -6 62 -3 83 39 228 50 173 78 245 94 245 18 0 88 -69 100 -98 10
-24 8 -36 -9 -76 -55 -129 -4 -120 143 26 89 87 102 117 37 83 -72 -37 -46 15
70 138 190 202 249 216 310 72 13 -31 19 -59 15 -74 -4 -14 -33 -57 -67 -96
-33 -38 -70 -90 -83 -115 -12 -25 -48 -80 -79 -124 -105 -146 -127 -217 -91
-301 29 -72 68 -53 80 38 9 73 44 143 114 236 83 109 103 145 112 203 12 77
49 105 99 78 26 -14 140 -150 140 -167 0 -7 -66 -82 -148 -166 -196 -202 -252
-292 -182 -292 20 0 30 11 55 58 44 84 154 190 240 231 38 18 90 50 114 70 24
20 52 41 62 47 17 8 18 5 17 -28 -1 -21 1 -61 6 -90 7 -50 7 -52 -21 -67 -68
-35 -242 -254 -319 -402 -38 -74 -40 -86 -18 -108 36 -37 85 -6 104 66 7 24
28 74 48 112 30 57 46 75 91 104 31 19 90 61 131 92 119 90 135 95 175 55 39
-38 34 -77 -17 -117 -72 -58 -127 -121 -164 -191 -33 -63 -42 -113 -19 -112 6
1 40 42 77 93 52 72 82 103 140 142 40 27 83 50 95 50 31 0 153 -115 153 -145
0 -31 -41 -55 -100 -60 -60 -4 -108 -35 -203 -130 -71 -71 -143 -171 -153
-212 -9 -36 11 -73 39 -73 30 0 51 24 67 75 22 69 58 131 92 160 79 67 265
132 294 103 12 -12 10 -22 -12 -67 -15 -29 -47 -74 -71 -98 -48 -50 -61 -72
-92 -154 -23 -60 -26 -100 -11 -130 16 -29 39 -23 55 13 7 18 31 74 53 124 55
128 104 198 156 223 55 27 74 26 102 -4 13 -14 33 -25 45 -25 12 0 47 -14 77
-31 l54 -30 22 20 c27 26 62 27 75 4 5 -10 23 -82 39 -160 33 -153 53 -203 80
-203 60 0 54 85 -23 302 -31 86 -29 140 5 158 39 21 87 -19 180 -148 28 -40
59 -76 68 -81 49 -24 56 33 13 100 -15 24 -64 85 -108 134 -75 84 -79 91 -59
99 37 14 120 10 156 -9 65 -33 102 -68 201 -191 55 -67 106 -125 115 -128 48
-19 91 6 79 44 -4 12 -99 116 -213 231 l-205 210 34 35 c102 107 161 88 360
-113 135 -137 162 -159 179 -148 33 20 -5 76 -177 263 -62 67 -120 136 -128
152 -14 27 -14 30 4 40 53 28 119 5 223 -78 118 -96 196 -142 237 -142 46 0
81 24 81 55 0 27 -70 113 -207 256 -46 47 -83 93 -83 101 0 9 17 20 41 27 l41
12 -27 29 c-19 20 -25 34 -20 49 10 31 94 101 123 101 25 0 141 -111 330 -314
76 -83 84 -89 99 -74 21 22 10 48 -22 48 -17 0 -25 5 -25 18 0 45 -145 219
-211 252 -21 11 -44 28 -51 39 -7 10 -30 26 -51 35 -34 14 -37 17 -27 37 17
31 64 20 163 -40 45 -27 95 -53 110 -57 27 -6 29 -5 25 21 -2 17 2 30 10 33
15 5 37 -45 47 -106 4 -24 13 -46 20 -48 7 -3 31 6 53 21 50 33 95 31 100 -3
4 -27 30 -41 42 -21 14 22 -18 62 -99 122 -75 54 -96 78 -155 175 -28 45 -51
54 -59 22 -11 -43 -115 -14 -152 44 -15 23 -15 27 0 56 23 45 41 47 91 11 25
-17 47 -31 49 -31 3 0 5 19 5 43 0 52 17 117 31 117 6 0 17 16 25 36 l15 35
69 -7 c39 -3 70 -4 70 0 0 3 -19 15 -42 27 -24 12 -45 24 -48 26 -3 3 -5 32
-6 66 -1 45 -7 72 -23 99 -38 62 -26 128 21 128 17 0 19 -4 13 -22 -19 -62
-18 -79 10 -108 32 -34 78 -55 101 -46 15 6 15 8 -1 32 -18 28 -14 54 9 54 42
0 120 -25 145 -46 16 -13 36 -24 45 -24 17 0 44 -46 33 -57 -4 -3 -38 3 -76
14 -110 32 -115 0 -8 -47 80 -36 94 -82 42 -146 l-24 -29 -33 19 c-96 56 -101
58 -148 41 -23 -8 -58 -15 -77 -15 -55 0 -76 -16 -69 -53 10 -48 42 -74 125
-102 96 -32 155 -65 160 -90 2 -10 -7 -52 -20 -92 -12 -40 -19 -76 -15 -80 5
-5 37 24 72 62 l65 70 29 -32 c40 -44 48 -84 55 -263 8 -202 22 -317 44 -360
10 -19 26 -59 35 -87 13 -38 26 -58 47 -70 37 -22 65 -78 128 -260 54 -153 80
-212 105 -233 14 -11 23 -10 55 5 22 9 44 14 49 11 6 -3 27 -55 47 -115 38
-114 80 -192 114 -210 11 -6 40 -11 64 -11 52 0 59 -7 91 -85 34 -85 68 -123
122 -136 53 -14 59 -27 59 -139 0 -66 -4 -84 -37 -153 l-37 -78 20 -20 c17
-17 28 -20 58 -14 20 4 59 10 86 14 102 14 130 53 123 170 -9 146 -100 315
-268 496 -31 33 -76 89 -100 125 -24 36 -87 108 -140 160 -70 69 -110 117
-143 177 -26 45 -79 121 -118 170 -92 114 -118 166 -136 277 -20 124 -76 352
-112 460 -48 138 -42 277 18 424 19 48 20 55 6 76 -12 18 -14 33 -6 67 5 24
17 110 26 192 14 118 15 153 5 176 -14 34 -7 78 21 134 25 48 44 49 36 1 -5
-30 -3 -37 14 -41 49 -13 160 -75 229 -127 41 -32 131 -86 200 -120 69 -34
177 -99 240 -143 63 -44 138 -92 165 -106 28 -13 59 -35 70 -47 41 -46 382
-268 439 -286 11 -4 45 -28 74 -55 34 -31 75 -56 114 -70 33 -13 83 -40 111
-62 64 -51 140 -85 307 -137 256 -80 386 -132 630 -250 272 -132 377 -174 477
-191 38 -6 115 -29 172 -51 190 -72 369 -97 546 -79 132 14 180 35 250 106
105 107 149 233 149 425 0 108 -4 136 -27 205 -14 44 -33 112 -42 150 -18 81
-37 134 -93 261 -22 51 -46 111 -52 135 -6 24 -37 91 -69 149 -32 58 -72 139
-90 181 -18 42 -52 98 -75 125 -24 27 -55 72 -69 99 -14 28 -72 118 -129 200
-57 83 -150 218 -207 300 -309 453 -277 413 -676 830 -171 179 -299 321 -317
352 -19 34 -50 67 -91 97 -58 43 -117 114 -117 143 0 16 61 27 108 19 20 -3
87 -30 147 -60 61 -30 132 -64 158 -75 66 -28 142 -110 201 -217 27 -49 50
-91 52 -93 6 -7 70 39 108 78 37 38 38 41 26 70 -23 57 -120 136 -239 195 -78
40 -132 75 -176 116 -74 69 -117 92 -220 121 -43 11 -124 41 -181 65 -56 24
-107 44 -111 44 -5 0 -67 36 -137 79 -70 44 -151 88 -179 98 -29 10 -64 32
-82 52 -16 18 -46 50 -66 70 -19 20 -48 60 -63 88 -39 71 -113 162 -274 337
-75 81 -179 201 -230 265 -52 64 -115 139 -141 166 -27 28 -79 88 -118 135
-158 192 -683 743 -729 765 -19 9 -41 29 -49 44 -26 50 -66 92 -161 162 -51
39 -96 79 -100 91 -3 12 -40 54 -81 94 -57 56 -74 78 -71 96 2 16 11 24 28 26
66 7 70 10 70 52 0 34 8 47 58 101 31 34 109 102 173 150 64 48 133 108 154
133 20 25 74 114 120 199 45 84 99 175 119 201 20 26 36 55 36 63 0 9 31 86
69 172 37 86 83 197 101 246 18 50 45 124 61 166 29 77 49 200 49 299 0 87 4
91 94 138 103 52 170 104 186 142 14 35 96 93 170 121 58 22 83 38 174 111 35
28 80 54 110 62 62 18 138 67 153 98 6 13 17 38 24 57 15 40 56 91 72 91 7 0
40 23 74 51 50 41 77 75 135 171 69 115 71 121 57 146 -21 38 -65 60 -173 86
-139 35 -265 50 -298 37 -30 -11 -37 -41 -15 -59 15 -12 189 -72 210 -72 8 0
25 -9 38 -19 l24 -19 -19 -37 c-31 -57 -171 -190 -230 -218 -29 -14 -82 -50
-117 -79 -100 -85 -143 -113 -210 -138 -46 -18 -82 -42 -146 -102 -87 -80
-133 -110 -191 -123 -17 -3 -56 -24 -85 -46 -75 -56 -211 -213 -251 -289 -35
-66 -79 -216 -136 -465 -41 -180 -95 -355 -131 -427 -61 -121 -115 -157 -274
-184 -55 -9 -177 -34 -272 -55 -179 -40 -250 -48 -271 -27 -19 19 -14 63 11
85 27 26 131 66 257 99 98 26 137 47 112 63 -20 12 -130 -12 -344 -74 -45 -13
-48 -13 -82 13 -44 33 -90 98 -82 117 3 8 46 35 96 60 49 25 90 50 90 55 0 16
-15 12 -97 -27 -43 -20 -99 -38 -125 -41 -44 -4 -48 -3 -58 22 -19 50 -14 59
26 51 29 -5 41 -2 58 14 11 11 54 36 94 56 39 20 72 39 72 42 0 3 -35 3 -77 0
-60 -3 -95 -12 -148 -37 -90 -42 -167 -46 -196 -11 -24 30 -24 72 0 102 l18
23 77 -17 c168 -37 206 -19 226 106 6 40 17 89 23 111 13 46 15 47 230 115 84
26 166 55 182 63 17 9 73 20 125 27 91 10 138 29 147 58 7 21 -38 50 -84 56
-63 7 -137 -13 -291 -77 -72 -31 -136 -56 -140 -56 -5 0 -40 -20 -78 -45 -37
-25 -73 -45 -80 -45 -29 0 -110 128 -159 252 -24 61 -36 75 -138 165 -62 54
-133 112 -160 130 -67 45 -397 153 -468 153 -54 0 -130 27 -144 50 -20 32 75
36 122 4 31 -19 34 -19 84 20 24 19 100 67 169 106 69 39 136 82 151 96 14 13
29 24 33 24 5 0 25 10 45 22 20 13 67 35 104 50 38 16 84 40 103 54 40 31 46
64 11 64 -41 0 -200 -85 -399 -213 -106 -68 -207 -131 -223 -140 -45 -23 -96
-30 -129 -17 -28 10 -28 11 -22 72 l7 61 -23 -15 c-36 -23 -73 -29 -108 -17
-30 11 -32 14 -27 49 2 20 40 104 83 186 l79 148 170 176 c173 178 221 239
211 265 -15 41 -59 6 -202 -160 -103 -120 -151 -159 -183 -147 -9 3 -31 16
-50 29 -62 42 -129 25 -161 -42 -20 -41 -20 -42 -1 -116 33 -130 33 -132 1
-196 -52 -104 -49 -103 -233 -93 -87 5 -167 12 -177 15 -12 4 -20 17 -22 38
-3 28 -7 32 -32 32 -16 0 -31 5 -33 12 -2 6 19 70 46 142 28 72 51 140 51 152
0 20 -33 77 -55 91 -22 16 -48 6 -94 -37 -49 -46 -75 -54 -114 -34 -52 27
-131 96 -174 153 -54 72 -73 113 -84 180 -5 27 -14 53 -21 58 -17 10 -57 9
-87 -3z m448 -768 c12 -21 5 -32 -15 -24 -16 6 -19 43 -4 43 5 0 14 -8 19 -19z
m-9 -235 c0 -29 -20 -46 -57 -49 -24 -2 -28 2 -28 23 0 16 8 29 25 37 40 20
60 16 60 -11z m607 -12 c8 -22 -11 -37 -36 -29 -23 7 -28 30 -8 38 23 10 38 7
44 -9z m113 -90 c11 -31 19 -58 18 -59 -4 -4 -40 -8 -59 -6 -9 0 -19 8 -22 16
-7 17 21 105 33 105 5 0 18 -25 30 -56z m-702 8 c37 -24 -77 -66 -163 -60 -42
3 -50 6 -50 23 0 17 6 19 35 17 19 -2 60 4 90 12 66 18 71 18 88 8z m826 -127
c0 -28 -11 -57 -36 -95 -86 -134 -114 -221 -102 -320 6 -45 13 -59 40 -84 34
-30 43 -59 23 -71 -19 -12 -54 4 -115 52 -34 26 -82 60 -107 75 -29 17 -47 35
-47 46 0 43 50 266 63 281 8 9 18 33 21 54 7 37 36 77 56 77 6 0 10 -15 10
-33 0 -33 27 -81 36 -62 20 45 35 63 73 93 59 45 86 41 85 -13z m-844 5 c10
-18 17 -20 61 -14 49 7 51 6 47 -17 -2 -17 -13 -27 -38 -35 -27 -9 -35 -17
-35 -35 0 -18 8 -25 33 -33 25 -7 32 -14 32 -34 0 -17 14 -38 41 -63 40 -37
41 -40 37 -88 -5 -45 -63 -186 -104 -249 -15 -23 -16 -23 -35 -6 -18 17 -20
16 -42 -4 -13 -12 -30 -22 -38 -22 -19 0 -39 20 -39 39 0 21 40 61 62 61 40 0
16 219 -43 383 -26 73 -30 92 -21 112 15 32 66 35 82 5z m400 -34 c0 -26 -34
-61 -49 -51 -17 10 -13 30 10 59 23 29 39 26 39 -8z m670 -68 c0 -5 -4 -8 -8
-8 -12 0 -32 46 -24 54 6 6 31 -31 32 -46z m-20 -53 c6 -3 10 -24 10 -45 0
-47 -18 -60 -84 -60 l-46 0 0 40 c0 33 -3 40 -19 40 -26 0 -37 20 -20 32 14 9
141 4 159 -7z m2184 -23 c8 -14 -23 -52 -51 -63 -41 -15 -47 1 -12 37 33 34
53 42 63 26z m-3526 -167 c26 -53 28 -75 7 -75 -17 0 -33 35 -42 88 -8 46 9
40 35 -13z m1326 29 c9 -25 7 -83 -4 -105 -15 -27 -76 -27 -85 1 -19 59 68
160 89 104z m-1506 -62 c3 -20 0 -23 -20 -20 -15 2 -24 11 -26 26 -3 20 0 23
20 20 15 -2 24 -11 26 -26z m822 -53 c0 -16 -29 -22 -45 -9 -22 19 0 43 26 29
10 -5 19 -14 19 -20z m80 -43 c0 -8 -16 -27 -35 -42 -28 -21 -41 -25 -69 -20
-23 4 -46 1 -70 -11 -36 -17 -37 -16 -58 5 -32 32 -15 41 91 51 51 5 97 13
104 20 16 16 37 14 37 -3z m2600 -12 c18 -46 11 -126 -15 -189 -13 -33 -48
-123 -76 -200 -56 -153 -98 -245 -111 -245 -19 0 -6 98 33 247 23 87 50 207
60 266 19 116 35 147 76 147 16 0 27 -8 33 -26z m-5301 -14 c25 -13 31 -30 46
-135 9 -65 33 -145 84 -284 91 -245 92 -303 3 -107 -34 76 -67 159 -74 184 -6
26 -33 99 -59 163 -58 138 -62 178 -21 188 2 1 11 -3 21 -9z m1588 -36 c4 -11
-1 -22 -13 -31 -36 -26 -70 0 -39 31 21 21 44 20 52 0z m2073 -20 c0 -22 -29
-29 -47 -11 -13 13 -14 19 -4 31 16 19 51 5 51 -20z m-500 -13 c0 -5 -6 -14
-14 -20 -16 -13 -32 2 -21 19 8 12 35 13 35 1z m116 -36 c7 -18 -13 -45 -33
-45 -19 0 -28 27 -13 45 16 19 39 19 46 0z m-435 -5 c12 0 12 -27 -1 -35 -15
-9 -60 6 -60 20 0 16 19 25 38 19 8 -2 18 -4 23 -4z m-843 -32 c-7 -19 -38
-22 -38 -4 0 10 9 16 21 16 12 0 19 -5 17 -12z m1410 -19 c2 -14 -4 -31 -12
-38 -13 -11 -20 -8 -41 14 -22 21 -25 28 -14 41 7 8 24 14 38 12 20 -2 27 -9
29 -29z m-1558 -4 c33 -39 -25 -95 -99 -95 -62 0 -81 24 -33 41 16 5 39 23 51
39 24 33 61 40 81 15z m1686 -20 c7 -18 -13 -45 -33 -45 -19 0 -28 27 -13 45
16 19 39 19 46 0z m-1121 -33 c1 -17 9 -40 19 -51 17 -18 17 -21 3 -21 -28 0
-52 51 -48 98 2 28 26 4 26 -26z m620 -39 c119 -33 500 -87 577 -81 38 3 45 7
57 36 17 38 26 40 35 10 9 -37 7 -45 -18 -75 -15 -17 -26 -45 -28 -69 -3 -36
-5 -39 -36 -42 -22 -2 -53 7 -92 27 -117 61 -333 100 -433 79 -90 -19 -100
-17 -119 22 -9 19 -20 55 -24 79 -7 41 -6 44 12 36 10 -4 42 -14 69 -22z
m-735 -25 c0 -2 -6 -23 -14 -48 l-13 -45 -59 -6 c-32 -4 -105 -7 -161 -8 -148
-1 -173 13 -75 44 113 36 323 77 322 63z m100 -106 c0 -15 -62 -82 -76 -82
-22 0 -17 16 17 55 28 32 59 46 59 27z m538 -64 c4 -32 -8 -36 -30 -10 -31 36
-32 44 -2 40 23 -2 30 -9 32 -30z m-48 -48 c0 -11 -40 -34 -47 -26 -3 3 -3 12
0 21 7 16 47 21 47 5z m-876 -75 c-7 -25 -16 -50 -19 -55 -12 -19 -105 -9
-105 10 0 5 20 18 44 29 24 12 51 30 61 41 28 31 34 24 19 -25z m1336 9 c32
-19 60 -63 60 -93 0 -12 -2 -21 -4 -21 -2 0 -11 -3 -19 -6 -19 -7 -47 22 -47
49 0 12 -7 35 -15 51 -23 43 -19 46 25 20z m373 -26 c7 -21 -12 -48 -33 -48
-13 0 -20 7 -20 18 0 34 43 57 53 30z m-425 -25 c-5 -26 -38 -29 -38 -4 0 15
6 21 21 21 14 0 19 -5 17 -17z m248 -12 c-8 -13 -36 -15 -36 -3 0 4 5 13 12
20 14 14 34 0 24 -17z m-1971 -31 c4 -12 1 -28 -6 -36 -12 -14 -14 -14 -26 1
-8 13 -9 23 -2 36 13 25 26 24 34 -1z m1131 6 c3 -8 -2 -28 -11 -46 -13 -25
-14 -34 -4 -46 20 -24 85 -54 118 -54 39 0 66 -35 82 -104 10 -47 9 -58 -8
-97 -11 -25 -55 -85 -98 -134 -43 -50 -99 -121 -123 -160 -25 -38 -63 -89 -84
-112 -27 -30 -38 -52 -38 -73 0 -35 -19 -78 -58 -129 -22 -30 -23 -33 -6 -26
10 5 33 9 49 9 27 1 30 -2 33 -35 2 -24 -3 -42 -13 -53 -15 -15 -15 -17 8 -25
13 -5 33 -22 44 -36 17 -24 21 -26 35 -12 8 9 18 36 21 62 4 26 16 59 26 74
11 15 26 60 35 101 9 41 19 85 22 98 4 12 4 22 0 22 -3 0 -31 -23 -63 -52 -34
-30 -59 -46 -61 -39 -9 26 10 80 52 147 24 38 46 79 50 91 7 23 99 113 134
132 34 18 28 0 -29 -100 -60 -106 -62 -132 -6 -92 30 21 42 25 55 16 30 -18
24 -38 -29 -104 -72 -90 -83 -115 -84 -185 0 -54 4 -67 38 -117 20 -31 37 -63
37 -71 0 -19 -84 -120 -115 -136 -22 -12 -27 -11 -45 5 -16 14 -23 16 -32 7
-9 -9 -7 -16 10 -28 34 -24 28 -58 -18 -94 -27 -22 -40 -39 -40 -56 0 -20 4
-25 22 -22 11 2 23 -2 25 -8 2 -6 -17 -50 -42 -98 -83 -159 -59 -142 119 79
148 184 224 267 236 260 8 -5 -24 -111 -52 -170 -10 -22 -80 -112 -154 -200
-144 -169 -280 -343 -290 -369 -4 -11 0 -16 15 -16 14 0 23 8 27 25 3 13 21
33 39 43 39 23 70 63 123 157 26 47 54 80 83 101 24 17 62 57 84 90 31 45 47
60 68 62 34 4 57 -13 57 -43 0 -28 -24 -49 -73 -65 -27 -8 -49 -27 -76 -63
-21 -29 -67 -79 -102 -113 -36 -34 -79 -88 -99 -124 -19 -35 -59 -90 -89 -122
-63 -69 -88 -73 -106 -18 -9 27 -18 36 -41 40 -34 6 -42 30 -20 62 27 39 128
137 147 143 23 8 46 82 30 98 -8 8 -22 -2 -50 -32 -33 -36 -44 -42 -72 -39
-41 4 -47 20 -17 48 22 20 22 22 6 34 -10 7 -18 23 -18 35 0 35 28 94 56 117
29 24 24 49 -7 39 -19 -6 -49 9 -49 25 0 5 12 22 26 39 14 17 24 39 22 48 -3
15 -10 11 -38 -19 -40 -45 -60 -37 -60 22 0 37 23 79 76 143 13 16 24 34 24
40 0 6 16 28 36 48 22 23 34 44 31 53 -10 25 -47 6 -83 -44 -34 -48 -56 -60
-129 -76 -36 -8 -40 -13 -43 -42 -4 -39 20 -53 48 -27 35 31 41 11 10 -31 -20
-29 -34 -64 -43 -113 -15 -75 -35 -108 -70 -113 -12 -2 -35 -23 -52 -48 l-30
-45 -3 53 c-3 59 -16 66 -56 30 -30 -27 -96 -135 -96 -158 0 -8 9 -21 20 -28
34 -21 24 -86 -23 -156 l-20 -28 32 7 c29 6 31 5 31 -22 0 -116 -102 -243
-140 -174 -16 30 -13 44 21 95 17 26 29 49 26 53 -3 3 -21 8 -39 12 -47 10
-46 34 2 114 23 38 39 71 36 74 -2 3 -23 -9 -44 -27 -43 -34 -80 -35 -84 -2
-1 9 -2 24 -4 32 -1 8 -2 24 -3 35 -1 12 -14 36 -30 55 -26 31 -30 33 -46 20
-20 -17 -61 -103 -67 -140 -3 -21 1 -24 27 -25 35 0 43 -22 25 -65 -25 -61
-61 -49 -91 32 l-23 61 23 40 c21 36 22 47 16 115 l-7 75 24 -8 c39 -13 112
-16 128 -6 12 9 13 14 3 28 -42 59 -43 68 -21 112 11 23 18 44 15 47 -2 3 -33
-13 -67 -35 -34 -22 -66 -38 -71 -35 -5 3 -9 16 -9 30 0 30 -4 30 -43 2 -37
-27 -128 -36 -181 -18 -20 6 -44 24 -54 38 -23 37 -33 43 -64 36 -19 -4 -33 1
-47 15 -24 24 -25 36 -10 95 10 39 8 49 -15 98 -14 30 -26 67 -26 81 0 29 31
67 55 67 8 0 21 15 29 33 7 19 26 43 41 55 29 23 79 29 90 11 4 -5 25 -9 47
-7 53 4 66 -15 50 -70 -21 -70 -41 -86 -105 -83 -45 2 -60 -2 -77 -19 -11 -11
-20 -29 -20 -40 0 -27 37 -62 58 -56 41 12 197 36 302 46 200 19 348 40 391
55 45 16 162 18 314 6 50 -4 91 -7 93 -6 1 1 -2 35 -9 74 -14 91 -10 106 46
173 25 30 45 58 45 62 0 3 -10 4 -22 2 -69 -14 -98 -16 -98 -6 0 6 20 35 45
66 29 35 45 65 45 82 0 16 15 53 33 83 17 30 38 67 45 82 21 49 132 78 124 34
-2 -11 -16 -40 -33 -67 -33 -54 -35 -60 -14 -60 8 0 15 6 15 14 0 7 34 53 75
101 41 48 75 94 75 102 0 13 -10 14 -59 9 -49 -6 -60 -4 -65 10 -10 25 3 56
35 86 45 41 37 90 -16 100 -22 4 -32 35 -34 105 -1 33 4 45 21 57 28 20 37 20
44 2z m89 -26 c-10 -16 -35 7 -28 27 5 13 7 13 21 0 8 -8 11 -20 7 -27z
m-1876 -24 c65 -26 180 -99 224 -140 34 -34 35 -64 2 -72 -42 -10 -69 3 -146
72 -41 37 -98 78 -126 91 -60 28 -70 38 -53 58 17 20 31 19 99 -9z m1083 -74
c8 -142 43 -184 103 -122 16 16 35 30 42 30 19 0 111 -88 129 -122 24 -46 18
-56 -60 -93 -104 -49 -156 -119 -156 -209 0 -15 -6 -29 -14 -32 -20 -8 -176
25 -203 42 -13 8 -32 32 -43 54 -22 44 -34 48 -61 24 -21 -19 -49 -12 -49 11
0 34 111 165 139 165 5 0 33 -11 62 -24 29 -14 56 -23 61 -20 27 17 -36 96
-120 151 -29 19 -56 41 -59 49 -8 21 15 134 33 162 13 20 22 22 103 22 l88 0
5 -88z m1912 45 c8 -13 8 -20 -3 -26 -18 -11 -38 -4 -45 16 -14 35 27 44 48
10z m-2494 -13 c0 -31 -23 -28 -28 4 -2 15 2 22 12 22 11 0 16 -9 16 -26z
m1903 1 c-1 -11 -5 -40 -9 -65 l-6 -46 38 -9 c37 -9 39 -12 44 -55 5 -41 8
-45 42 -55 20 -5 39 -13 43 -17 13 -13 -45 -40 -92 -41 -46 -2 -48 -1 -51 28
-2 17 -8 34 -13 40 -5 5 -9 20 -9 33 0 13 -9 37 -21 53 -29 42 -36 102 -15
134 20 30 52 30 49 0z m107 -16 c0 -23 -37 -62 -50 -54 -16 10 -12 30 11 59
22 28 39 26 39 -5z m1620 15 c0 -16 -23 -44 -35 -44 -18 0 -18 5 -5 31 10 17
40 27 40 13z m-2475 -34 c4 -6 -11 -41 -33 -78 -22 -37 -42 -76 -44 -86 -5
-33 20 -29 58 8 61 59 67 48 30 -44 -43 -104 -128 -230 -156 -230 -15 0 -12
61 5 90 19 34 18 50 -3 50 -41 0 -53 45 -30 111 20 59 69 130 111 160 44 32
53 34 62 19z m1355 -45 c16 -19 -1 -63 -40 -105 -54 -58 -83 -28 -49 51 28 65
62 86 89 54z m-2379 -20 c0 -6 -10 -12 -23 -13 -19 -4 -20 -2 -9 12 15 17 33
18 32 1z m1493 -40 c-7 -16 -32 -27 -45 -19 -15 9 -10 32 9 36 25 6 41 -2 36
-17z m-1536 -38 c3 -22 -5 -36 -33 -61 -41 -38 -35 -50 33 -61 24 -4 42 -12
42 -19 0 -18 -45 -83 -85 -126 -19 -19 -38 -47 -44 -63 -16 -41 -141 -208
-152 -201 -5 3 -9 35 -9 72 0 43 -5 75 -15 89 -14 20 -13 21 28 26 53 7 79 37
75 86 -3 31 -8 37 -38 47 -26 8 -36 18 -38 36 -3 27 32 78 53 78 8 0 19 9 25
21 11 19 12 20 24 3 15 -20 21 -13 30 38 8 43 39 70 76 66 19 -2 26 -10 28
-31z m2507 4 c3 -5 -18 -37 -46 -71 -30 -36 -51 -72 -51 -86 0 -13 -9 -31 -19
-40 -17 -15 -17 -19 -4 -51 22 -52 19 -71 -15 -88 l-29 -15 -2 47 c-4 144 -5
140 26 185 17 24 43 49 59 56 15 8 32 27 38 43 10 28 31 38 43 20z m-2982 -29
c26 -13 67 -43 92 -68 54 -52 58 -84 21 -172 -13 -31 -31 -92 -40 -134 -25
-120 -20 -164 15 -122 12 14 68 48 70 42 0 -2 2 -19 3 -38 1 -19 6 -43 10 -52
6 -14 4 -18 -12 -18 -34 0 -52 -11 -52 -31 0 -29 -29 -68 -62 -85 -16 -8 -57
-44 -91 -79 -74 -75 -82 -78 -297 -94 -85 -7 -170 -15 -189 -18 -43 -7 -39 17
5 31 16 5 97 38 179 72 83 35 188 74 235 88 117 34 119 34 137 70 9 17 22 36
30 41 21 15 -12 53 -105 122 -70 52 -74 57 -57 69 10 8 30 14 44 14 56 0 101
20 107 47 11 44 0 54 -111 106 -27 12 -86 44 -130 70 -102 59 -125 63 -144 20
-18 -42 -34 -46 -101 -28 -85 22 -131 83 -97 128 28 39 82 47 292 45 186 -3
203 -5 248 -26z m2245 -46 c-2 -11 -10 -22 -19 -24 -20 -4 -30 28 -17 52 13
23 40 1 36 -28z m1517 24 c10 -16 -53 -205 -74 -224 -22 -20 -217 -94 -285
-108 -45 -10 -62 -8 -145 16 -123 35 -155 52 -145 74 4 9 9 33 10 52 1 19 3
38 3 42 2 14 89 47 144 53 32 4 82 15 110 24 63 22 220 58 302 70 33 5 63 9
67 10 4 0 10 -4 13 -9z m-755 -74 c0 -17 -27 -29 -35 -16 -4 6 -3 15 0 20 9
15 35 12 35 -4z m-2370 -52 c0 -13 -4 -25 -9 -28 -12 -8 -21 18 -21 57 1 30 1
31 15 13 8 -11 15 -30 15 -42z m1715 -38 c0 -10 -8 -24 -18 -30 -24 -15 -53
19 -35 41 16 20 53 12 53 -11z m-2645 -39 c38 -19 38 -52 -1 -66 -94 -33 -199
15 -147 67 16 16 116 15 148 -1z m880 -21 c0 -8 -22 -30 -49 -49 -39 -28 -50
-43 -60 -80 -11 -46 -40 -77 -73 -77 -20 0 -32 32 -24 64 7 27 84 109 128 136
38 23 78 26 78 6z m1362 -27 c-3 -31 -19 -46 -32 -33 -8 8 -8 19 0 38 12 33
36 29 32 -5z m352 2 c9 -14 -3 -39 -22 -46 -20 -7 -47 19 -39 39 7 17 52 22
61 7z m716 -21 c0 -11 -28 -46 -64 -81 -35 -33 -75 -81 -88 -106 -22 -43 -22
-45 -4 -58 15 -12 18 -24 14 -69 l-5 -55 69 64 c90 86 134 89 152 12 11 -45
-1 -67 -34 -67 -41 0 -109 -29 -120 -51 -13 -22 -13 -66 -1 -73 5 -4 23 7 39
24 33 33 72 39 92 15 10 -13 8 -22 -14 -53 -22 -32 -27 -53 -32 -132 -8 -122
-24 -157 -116 -254 -82 -88 -108 -96 -108 -31 0 28 -4 35 -20 35 -29 0 -43 33
-31 78 15 54 54 107 107 143 l46 31 -48 42 -48 43 22 51 c12 28 22 61 22 73 0
21 -1 21 -18 6 -23 -21 -52 -22 -52 -1 0 8 5 35 11 58 9 36 8 49 -6 75 -15 31
-15 34 6 79 27 54 186 222 212 222 10 0 17 -8 17 -20z m-1675 -89 c0 -37 -26
-64 -45 -45 -16 16 7 86 28 82 12 -2 17 -13 17 -37z m-127 -2 c3 -29 -20 -54
-43 -45 -18 7 -20 47 -3 64 19 19 43 10 46 -19z m1226 12 c7 -10 -22 -37 -30
-28 -9 8 3 37 15 37 5 0 12 -4 15 -9z m626 -14 c0 -28 -26 -67 -45 -67 -22 0
-38 36 -25 59 19 37 70 43 70 8z m-1940 7 c0 -15 -22 -44 -35 -44 -21 0 -28
19 -15 35 12 14 50 21 50 9z m-475 -56 c26 -4 28 -56 3 -71 -23 -15 -53 13
-65 61 -14 54 -5 70 21 39 11 -14 30 -27 41 -29z m2575 27 c0 -16 -42 -30 -65
-21 -8 3 -15 12 -15 21 0 11 11 15 40 15 29 0 40 -4 40 -15z m-3371 -48 c9
-12 8 -18 -5 -32 -16 -15 -18 -15 -35 2 -10 10 -21 31 -25 46 l-7 29 30 -15
c16 -9 35 -22 42 -30z m1082 6 c52 -28 81 -58 111 -112 11 -20 33 -38 60 -50
l43 -18 -60 -14 c-48 -10 -68 -21 -102 -55 -29 -30 -52 -45 -80 -49 -21 -4
-62 -13 -91 -21 -57 -16 -83 -9 -102 26 -10 19 -7 20 38 20 55 0 135 36 140
63 4 21 -39 49 -80 51 -25 1 -35 -4 -43 -22 -17 -39 -30 -17 -33 59 -4 99 4
138 31 149 35 16 114 3 168 -27z m1237 -6 c2 -12 -3 -17 -17 -17 -12 0 -21 6
-21 13 0 31 32 34 38 4z m456 0 c8 -12 7 -20 -2 -29 -16 -16 -47 13 -38 37 7
19 25 16 40 -8z m-662 -66 c35 -56 36 -72 2 -40 -30 28 -74 93 -74 110 0 19
40 -21 72 -70z m582 42 c-11 -59 -29 -106 -43 -111 -16 -5 -7 64 15 116 18 45
37 42 28 -5z m832 -17 c41 -47 26 -124 -27 -147 -89 -36 -215 38 -195 115 11
44 60 68 135 63 55 -3 67 -7 87 -31z m-2148 -28 c-4 -29 -38 -38 -38 -10 0 22
8 32 27 32 9 0 13 -8 11 -22z m940 0 c-4 -29 -38 -38 -38 -10 0 22 8 32 27 32
9 0 13 -8 11 -22z m222 -8 c9 -16 8 -22 -4 -26 -21 -8 -36 3 -36 27 0 25 26
25 40 -1z m-1858 -117 c6 -28 -18 -124 -36 -141 -21 -21 -49 -6 -54 28 -10 67
77 175 90 113z m1675 -45 c-2 -13 -4 -5 -4 17 -1 22 1 32 4 23 2 -10 2 -28 0
-40z m-1537 13 c0 -30 -49 -83 -73 -79 -33 5 -31 26 6 63 39 39 67 45 67 16z
m1360 -13 c0 -5 -7 -11 -16 -15 -18 -7 -47 23 -38 38 6 10 54 -11 54 -23z
m670 6 c21 -24 -10 -66 -72 -99 -32 -16 -64 -39 -73 -50 -13 -17 -16 -18 -25
-5 -16 24 -12 44 15 80 14 19 25 41 25 51 0 22 19 37 55 41 39 4 62 -1 75 -18z
m-810 -9 c0 -16 -43 -31 -59 -20 -25 15 -11 35 24 35 24 0 35 -5 35 -15z m848
-119 c3 -12 -1 -17 -10 -14 -7 3 -15 13 -16 22 -3 12 1 17 10 14 7 -3 15 -13
16 -22z m420 -73 c-7 -16 -20 -28 -28 -28 -26 0 -23 36 4 62 14 13 27 29 27
36 1 7 4 0 6 -15 2 -15 -2 -40 -9 -55z m-1115 31 c46 -15 5 -38 -89 -49 -89
-11 -132 -31 -139 -65 -11 -48 -175 -215 -189 -192 -11 19 41 99 119 181 44
47 88 98 98 113 9 14 27 28 39 30 24 3 130 -8 161 -18z m239 9 c22 -20 23 -52
2 -60 -20 -7 -34 13 -34 50 0 31 6 33 32 10z m432 -103 c34 -13 34 -49 0 -89
-43 -52 -74 -38 -74 32 0 36 8 51 30 60 8 3 16 6 17 6 1 1 13 -3 27 -9z m-403
-25 c42 7 50 -3 23 -29 -10 -10 -33 -16 -64 -16 -31 0 -54 6 -64 16 -20 19
-20 19 0 39 15 15 18 15 41 0 18 -12 36 -15 64 -10z m-231 -100 c0 -8 -15 -21
-32 -29 -18 -7 -47 -30 -65 -50 -36 -42 -53 -46 -53 -13 0 36 84 107 127 107
14 0 23 -6 23 -15z m1058 -52 c-7 -16 -18 -27 -23 -26 -20 4 -16 45 7 70 22
24 23 24 26 4 2 -11 -3 -33 -10 -48z m392 42 c16 -20 1 -39 -26 -33 -27 5 -32
48 -6 48 11 0 25 -7 32 -15z m-1163 -51 c8 -21 -13 -42 -28 -27 -13 13 -5 43
11 43 6 0 13 -7 17 -16z m-90 -38 c-4 -9 -11 -16 -17 -16 -15 0 -24 26 -16 47
6 15 8 15 23 1 9 -9 13 -24 10 -32z m741 22 c21 -21 13 -46 -27 -77 -59 -47
-93 -62 -108 -50 -17 15 -3 41 50 97 42 43 64 51 85 30z m-369 -12 c8 -10 9
-16 1 -21 -13 -8 -30 3 -30 21 0 18 14 18 29 0z m-169 -26 c0 -21 -8 -24 -34
-14 -25 10 -19 34 9 34 18 0 25 -5 25 -20z m1052 -67 c40 -37 115 -107 166
-155 51 -48 127 -111 170 -140 42 -28 122 -95 176 -147 216 -209 531 -550 656
-710 70 -91 164 -204 207 -251 43 -47 124 -142 180 -211 132 -165 209 -246
506 -539 237 -233 275 -275 263 -287 -7 -7 -89 42 -130 78 -19 16 -41 29 -49
29 -27 0 -47 -12 -47 -28 0 -26 49 -100 70 -107 33 -11 273 -209 452 -374 67
-62 173 -146 233 -186 119 -78 167 -124 235 -225 58 -86 118 -165 213 -280 44
-52 90 -117 103 -145 13 -27 65 -95 114 -150 50 -55 99 -119 110 -141 25 -54
117 -189 190 -280 31 -40 83 -121 115 -180 32 -60 76 -135 98 -166 31 -44 40
-67 41 -100 1 -32 -3 -43 -14 -43 -8 0 -70 83 -140 188 -69 104 -162 228 -207
279 -46 49 -83 98 -83 107 0 37 -185 299 -350 496 -27 33 -50 65 -50 71 0 19
-218 247 -478 498 -397 384 -495 467 -524 438 -16 -16 28 -60 337 -344 253
-233 328 -310 516 -528 177 -206 500 -618 554 -706 27 -43 110 -174 186 -289
141 -216 208 -333 316 -560 95 -200 127 -284 115 -309 -9 -20 -12 -18 -57 29
-118 124 -363 451 -629 837 -60 86 -135 186 -167 223 -33 36 -71 90 -85 118
-31 62 -80 132 -144 207 -26 30 -76 96 -111 145 -161 228 -444 531 -744 795
-104 93 -244 223 -310 290 -150 152 -208 184 -260 146 -18 -13 -18 -14 0 -42
10 -16 61 -70 113 -121 l95 -92 -6 -41 c-6 -46 -47 -106 -91 -130 -24 -14 -30
-13 -74 10 -33 18 -53 37 -67 65 -11 22 -141 202 -290 400 -148 198 -301 406
-339 463 -45 67 -86 115 -118 138 -53 40 -98 106 -98 147 0 34 16 34 66 1 58
-38 103 -84 131 -132 15 -24 35 -45 49 -48 18 -5 24 -13 24 -35 0 -22 9 -35
43 -58 23 -16 98 -86 167 -156 113 -115 233 -225 246 -225 9 0 -58 92 -116
159 -32 36 -126 138 -210 226 -194 203 -262 289 -284 353 -28 89 -98 196 -143
222 -61 36 -31 52 44 24 24 -9 46 -14 49 -11 8 8 -75 123 -116 162 -18 17 -43
54 -56 83 -30 68 -222 269 -247 259 -10 -4 -17 -17 -17 -31 0 -18 8 -27 29
-34 22 -8 30 -18 36 -48 9 -51 57 -155 81 -176 10 -9 37 -18 59 -20 31 -2 43
-9 54 -30 22 -38 6 -46 -27 -15 -57 54 -70 24 -19 -42 67 -88 77 -104 97 -157
11 -30 20 -73 20 -94 0 -38 -2 -40 -30 -40 -87 0 -147 71 -290 345 -40 77 -87
158 -105 180 -40 50 -107 181 -134 264 -21 64 -29 75 -167 229 -34 38 -65 80
-69 93 -4 13 -25 53 -46 89 -20 36 -47 97 -59 137 -23 77 -32 194 -15 200 14
4 251 -234 305 -306 23 -30 40 -61 38 -69 -2 -9 -18 -20 -36 -24 -41 -11 -42
-35 -1 -74 17 -16 51 -58 77 -94 91 -129 154 -210 163 -210 17 0 9 47 -11 65
-11 10 -20 23 -20 29 0 6 -14 31 -31 56 -16 25 -37 57 -45 73 -26 48 10 33 84
-38 93 -87 321 -337 346 -380 12 -19 42 -62 69 -95 26 -34 47 -70 47 -79 0
-19 32 -52 70 -71 87 -45 438 -379 465 -443 11 -26 35 -49 87 -83 46 -31 141
-117 258 -235 102 -103 195 -192 207 -198 33 -17 73 -14 73 5 0 31 -684 692
-783 757 -26 17 -53 42 -60 57 -32 64 -122 162 -196 214 -46 32 -98 80 -128
118 -27 34 -105 126 -173 203 -122 139 -249 293 -304 370 -42 58 -98 115 -113
115 -7 0 -22 19 -33 43 -11 23 -77 105 -146 181 -185 204 -243 283 -229 306
13 21 37 8 107 -57z m-1362 18 c0 -11 -4 -23 -10 -26 -6 -4 -10 5 -10 19 0 14
5 26 10 26 6 0 10 -9 10 -19z m-1910 -6 c0 -1 -7 -19 -15 -38 -8 -20 -15 -39
-15 -42 0 -14 25 -1 63 34 48 44 77 60 95 54 21 -8 13 -51 -17 -85 -16 -18
-49 -67 -75 -109 -78 -130 -93 -129 -108 8 -15 142 2 199 53 186 11 -3 19 -7
19 -8z m2915 -29 c29 -12 35 -20 35 -44 0 -23 6 -32 30 -42 17 -7 35 -21 40
-31 12 -21 0 -58 -25 -79 -15 -12 -19 -12 -30 3 -7 10 -26 17 -44 17 -34 0
-36 5 -21 44 7 18 5 36 -6 63 -18 43 -29 53 -61 53 -14 0 -23 6 -23 15 0 20
59 20 105 1z m-155 -40 c0 -35 -10 -56 -26 -56 -12 0 -13 -4 -3 -22 39 -72
-20 -486 -90 -633 -16 -33 -34 -73 -40 -88 -28 -69 -154 -187 -292 -272 -39
-24 -77 -52 -84 -62 -15 -22 -92 -62 -126 -65 -18 -2 -24 2 -24 17 0 14 27 40
85 82 47 34 107 82 134 107 26 25 53 46 58 46 15 0 128 82 160 117 33 34 35
47 24 136 -8 66 -8 69 19 97 32 34 31 67 -4 62 -27 -4 -61 23 -61 50 0 16 8
18 65 18 61 0 66 2 75 26 14 36 12 95 -4 141 -12 33 -12 45 1 81 10 30 11 47
3 61 -16 30 -12 57 15 111 27 54 46 69 88 70 22 0 27 -4 27 -24z m-3026 5 c7
-10 -22 -37 -30 -28 -9 8 3 37 15 37 5 0 12 -4 15 -9z m-114 -15 c0 -25 -69
-151 -110 -200 -22 -26 -40 -56 -40 -66 0 -22 -65 -79 -97 -85 -13 -3 -34 -7
-48 -10 -18 -4 -25 -12 -25 -28 0 -26 -55 -97 -76 -97 -28 0 -20 49 12 73 13
11 24 29 24 42 0 29 31 60 86 84 39 18 57 40 138 170 57 90 136 159 136 117z
m220 -26 c-21 -14 -30 -12 -30 4 0 18 22 27 35 14 6 -6 5 -12 -5 -18z m2184
-11 c29 -34 26 -49 -9 -49 -24 0 -35 17 -35 56 0 32 13 30 44 -7z m546 16 c14
-17 4 -55 -16 -55 -9 0 -14 11 -14 35 0 37 10 44 30 20z m-3077 -11 c9 -10 -4
-34 -18 -34 -17 0 -28 17 -20 30 7 11 28 13 38 4z m667 -22 c0 -72 -67 -181
-104 -169 -34 11 -10 101 41 158 42 47 63 50 63 11z m1480 13 c0 -33 -143
-185 -174 -185 -23 0 -20 11 12 56 52 72 162 159 162 129z m270 -30 c0 -8 -9
-15 -20 -15 -20 0 -26 11 -13 23 12 13 33 7 33 -8z m920 5 c0 -12 -28 -25 -36
-17 -9 9 6 27 22 27 8 0 14 -5 14 -10z m-696 -15 c7 -19 -32 -41 -47 -26 -7 7
-6 15 3 26 16 19 36 19 44 0z m-1144 -30 c0 -7 -9 -24 -20 -38 l-20 -26 20 -6
c35 -11 16 -30 -33 -33 -38 -2 -47 0 -47 13 0 24 38 93 57 103 20 12 43 5 43
-13z m-1142 -65 c4 -37 -7 -53 -31 -44 -32 12 -14 91 18 81 5 -2 11 -18 13
-37z m-559 -4 c16 -19 2 -51 -51 -116 -25 -30 -80 -104 -123 -165 -92 -130
-310 -398 -412 -507 -39 -42 -74 -86 -77 -96 -4 -11 -34 -41 -69 -67 -34 -27
-152 -140 -262 -252 -665 -676 -827 -833 -916 -882 -65 -37 -47 -3 62 115 55
60 120 136 144 169 71 97 95 124 123 137 20 10 28 22 30 46 3 29 9 36 50 53
68 29 165 102 209 157 21 26 94 108 163 182 165 178 430 491 506 597 33 47 74
91 90 99 16 8 47 38 69 66 22 29 90 104 150 167 128 135 225 250 225 267 0 16
39 44 61 44 9 0 22 -6 28 -14z m3717 -40 c21 -21 34 -44 34 -60 0 -30 -7 -32
-32 -10 -29 27 -33 -6 -9 -62 28 -63 27 -80 -14 -130 l-35 -43 42 -3 c59 -4
72 -27 156 -280 117 -349 154 -502 196 -803 37 -268 37 -271 26 -410 -12 -148
-23 -172 -86 -193 -40 -13 -74 -38 -74 -54 0 -6 30 -7 75 -3 l74 7 7 -27 c18
-71 -14 -199 -53 -212 -14 -5 -20 2 -121 140 -12 17 -21 40 -20 51 2 16 -6 21
-47 31 -27 6 -60 17 -72 25 -26 16 -95 119 -88 131 3 4 42 22 88 39 103 40
157 68 157 80 0 14 -31 13 -183 -10 -152 -23 -168 -20 -205 35 -41 58 -30 104
49 211 52 71 90 100 154 119 51 14 77 36 61 52 -3 3 -23 9 -43 12 l-38 6 -7
110 c-9 131 -16 175 -28 175 -6 0 -10 -1 -11 -2 0 -2 -6 -62 -14 -134 -16
-164 -30 -195 -102 -236 -29 -16 -56 -34 -59 -40 -4 -5 3 -23 15 -39 11 -15
21 -31 21 -34 0 -3 -21 -19 -47 -35 -54 -35 -93 -38 -110 -11 -7 11 -29 25
-50 31 -21 7 -42 16 -46 20 -24 21 73 252 176 418 55 88 75 132 60 132 -15 -1
-77 -89 -143 -202 -36 -62 -80 -134 -98 -161 -18 -26 -38 -61 -44 -77 -8 -24
-16 -30 -39 -30 -34 0 -37 15 -9 50 42 54 12 68 -43 20 -19 -16 -41 -30 -50
-30 -18 0 -87 75 -87 95 0 21 -37 19 -76 -6 -19 -11 -38 -18 -44 -14 -14 9
-13 248 2 280 15 34 42 32 68 -6 31 -43 68 -37 93 14 15 29 24 37 46 37 31 0
51 -16 51 -41 0 -9 7 -20 16 -23 26 -10 10 -31 -27 -36 -30 -4 -34 -9 -37 -40
-2 -19 -9 -42 -17 -50 -19 -23 -28 -76 -15 -99 16 -30 27 -26 50 19 19 37 99
165 135 217 17 25 73 58 82 49 3 -3 -7 -35 -21 -72 -15 -36 -24 -69 -20 -73 9
-9 83 79 91 107 4 16 -2 33 -16 53 l-22 29 45 0 c37 0 48 5 70 31 40 47 52 77
66 154 12 66 11 73 -9 110 -34 63 -28 108 30 225 46 95 50 108 44 152 -9 63 0
99 36 144 33 42 33 56 -2 64 -30 7 -37 42 -13 78 12 18 13 27 6 30 -16 5 -15
29 1 35 35 15 70 6 103 -27z m-873 2 c7 -23 -5 -48 -24 -48 -22 0 -34 22 -25
45 7 18 43 20 49 3z m-426 -14 c21 -6 20 -9 -25 -60 -26 -30 -50 -54 -54 -54
-12 0 -10 78 2 101 11 19 37 24 77 13z m-2101 -37 c7 -19 -19 -90 -35 -95 -11
-4 -13 5 -8 42 4 26 9 52 13 57 8 13 24 11 30 -4z m279 -37 c-10 -16 -35 7
-28 27 5 13 7 13 21 0 8 -8 11 -20 7 -27z m1110 27 c10 -8 15 -19 11 -25 -15
-25 -63 -4 -53 22 8 20 18 20 42 3z m-1191 -13 c11 -30 -24 -174 -62 -249 -31
-65 -93 -107 -105 -72 -7 21 34 190 58 237 25 50 71 100 90 100 7 0 16 -7 19
-16z m202 4 c11 -17 5 -90 -9 -106 -8 -11 -12 -11 -18 0 -10 16 -12 102 -2
111 10 10 21 8 29 -5z m179 2 c17 -27 -45 -90 -89 -90 -21 0 -22 48 0 78 16
23 77 32 89 12z m1341 -41 c3 -6 -2 -20 -13 -31 -17 -16 -21 -17 -32 -5 -9 12
-8 18 4 31 19 19 31 20 41 5z m752 -12 c2 -10 -3 -17 -12 -17 -10 0 -16 9 -16
21 0 24 23 21 28 -4z m-868 -3 c0 -3 -18 -29 -40 -56 -22 -28 -38 -54 -35 -58
3 -5 24 -6 47 -2 l42 5 -20 -32 c-37 -58 -85 -103 -103 -95 -38 16 -61 15 -99
-5 -88 -45 -53 24 83 166 54 56 87 83 103 83 12 0 22 -3 22 -6z m630 -14 c0
-20 -44 -70 -61 -70 -15 0 -10 44 7 68 20 28 54 29 54 2z m-1810 -77 c0 -60
-50 -172 -80 -180 -12 -3 -20 -14 -20 -27 0 -28 -18 -46 -47 -46 -35 0 -29 32
26 145 80 162 121 199 121 108z m2942 -10 c25 -32 85 -101 134 -154 74 -80
103 -122 173 -250 46 -85 160 -285 253 -445 92 -160 168 -296 168 -302 0 -12
-126 -124 -158 -141 -15 -8 -24 -6 -40 12 -45 48 -252 381 -262 420 -6 23 -30
80 -54 127 -25 47 -70 148 -101 225 -53 130 -90 210 -144 311 -28 53 -57 190
-48 227 11 40 29 33 79 -30z m-2272 -24 c0 -18 -44 -48 -55 -38 -2 3 1 21 7
42 9 31 14 35 30 26 10 -5 18 -19 18 -30z m665 16 c0 -25 -90 -74 -107 -57
-15 15 6 46 44 65 41 21 63 18 63 -8z m-1495 7 c0 -11 -24 -88 -39 -127 -10
-23 -14 -26 -21 -15 -19 30 -11 87 16 119 25 30 44 40 44 23z m950 0 c0 -13
-36 -43 -43 -36 -10 10 12 44 28 44 8 0 15 -4 15 -8z m1330 -57 c-7 -8 -16
-15 -21 -15 -13 0 -11 24 3 38 18 18 35 -3 18 -23z m-2864 -40 c-8 -63 -48
-177 -113 -325 -30 -69 -68 -175 -83 -237 -34 -133 -78 -242 -171 -423 -65
-127 -116 -200 -141 -200 -5 0 -29 20 -52 44 -23 25 -63 54 -93 66 -50 21 -72
50 -38 50 8 0 28 26 44 59 17 32 62 111 101 176 39 65 87 149 106 186 19 38
39 69 44 69 5 0 24 28 41 63 17 34 53 96 79 137 26 41 58 95 73 120 14 25 48
76 76 114 28 38 51 74 51 81 0 17 50 65 68 65 12 0 13 -9 8 -45z m1234 -9 c0
-58 21 -130 47 -158 15 -17 14 -18 -26 -18 -86 0 -167 72 -142 126 17 38 82
104 102 104 16 0 19 -8 19 -54z m-1436 -11 c-1 -24 -8 -43 -19 -51 -26 -19
-38 -6 -32 33 12 70 53 84 51 18z m1016 -10 c0 -13 -11 -37 -24 -52 -20 -23
-28 -26 -43 -17 -11 7 -18 23 -18 44 0 29 5 35 35 45 42 15 50 11 50 -20z
m1160 6 c0 -11 -58 -61 -71 -61 -5 0 -9 9 -9 20 0 14 11 26 33 35 38 17 47 18
47 6z m-1610 -62 c9 -15 18 -19 35 -15 33 8 77 -45 73 -88 -3 -35 -44 -62 -78
-51 -16 5 -20 15 -20 56 0 27 -3 49 -7 49 -14 0 -153 -216 -153 -237 0 -7 7
-13 15 -13 24 0 129 37 201 71 51 24 73 30 100 25 19 -4 34 -13 34 -21 0 -8
-24 -43 -54 -78 l-55 -64 47 -22 c26 -11 65 -27 87 -33 35 -11 41 -18 45 -48
5 -32 8 -35 35 -32 39 3 113 -25 124 -47 14 -25 3 -35 -71 -70 -48 -23 -84
-50 -130 -100 -78 -82 -122 -156 -154 -259 -28 -92 -28 -93 -8 -85 17 6 64 96
64 123 1 25 62 97 124 145 62 48 75 52 105 33 15 -9 24 -7 49 10 36 26 91 107
122 180 12 28 28 52 35 52 20 0 85 -81 85 -105 0 -11 23 -56 50 -100 28 -45
50 -91 50 -106 0 -41 -44 -86 -124 -126 -39 -20 -66 -37 -61 -39 6 -1 31 -5
58 -9 29 -4 47 -11 47 -19 0 -21 -228 -236 -266 -252 -19 -8 -56 -28 -83 -44
-26 -17 -62 -30 -79 -30 -42 0 -102 30 -102 51 0 23 38 69 58 69 9 0 44 16 77
37 39 23 77 38 108 41 38 4 50 9 56 25 13 34 2 57 -27 57 -24 0 -25 2 -19 50
9 72 -11 65 -58 -21 -56 -102 -92 -122 -175 -98 -9 3 -18 -8 -26 -31 -6 -19
-21 -40 -33 -48 -27 -19 -47 -4 -72 55 -10 24 -23 43 -29 43 -14 0 -12 93 5
170 20 93 19 98 -13 67 -42 -40 -55 -36 -47 14 9 50 30 104 56 141 34 47 20
53 -24 10 -24 -23 -46 -40 -49 -37 -14 15 37 177 87 276 14 26 25 58 25 70 0
25 -26 59 -45 59 -16 0 -51 -67 -60 -115 -3 -21 -15 -55 -25 -75 -10 -20 -23
-62 -29 -95 -14 -70 -27 -509 -17 -548 4 -17 28 -42 66 -69 89 -62 89 -78 5
-147 -87 -71 -98 -72 -228 -7 -124 62 -174 74 -169 41 6 -37 30 -62 65 -69 48
-9 123 -60 142 -95 14 -27 14 -35 1 -65 -8 -19 -34 -56 -58 -82 -103 -112
-171 -133 -227 -69 -30 34 -31 39 -31 128 0 181 42 483 95 690 14 55 50 172
79 260 78 236 81 256 19 173 -45 -61 -120 -260 -144 -385 -12 -58 -28 -118
-35 -133 -8 -15 -19 -61 -25 -103 -5 -41 -17 -91 -24 -109 -23 -55 -43 -205
-55 -407 -9 -159 -8 -203 6 -295 24 -163 8 -262 -53 -326 l-27 -28 32 -39 c19
-24 29 -46 26 -55 -3 -9 -35 -36 -71 -62 -60 -43 -94 -86 -80 -100 4 -4 27 1
52 11 26 9 49 14 53 10 4 -3 6 -75 6 -158 0 -171 -10 -207 -64 -248 -57 -43
-90 -77 -90 -93 0 -24 12 -20 61 19 59 46 85 46 106 -2 22 -54 12 -476 -13
-529 -11 -23 -59 -69 -133 -129 -64 -51 -146 -118 -183 -148 -37 -30 -87 -63
-112 -72 -44 -17 -47 -17 -65 -1 -22 20 -93 227 -115 338 -51 247 -30 426 112
983 28 110 78 324 111 475 33 151 71 307 84 345 14 39 35 104 47 145 12 41 39
104 59 140 21 36 44 83 51 105 7 22 21 57 32 78 10 21 32 79 49 130 18 57 44
110 68 142 21 27 46 73 56 100 10 28 36 85 57 129 22 43 54 115 72 160 19 44
61 130 94 189 33 60 74 152 92 205 17 54 34 102 38 107 4 6 32 23 62 39 30 16
79 42 109 58 65 34 115 37 131 7z m2216 -10 c9 -15 -11 -33 -30 -26 -9 4 -13
13 -10 22 7 17 30 20 40 4z m-1708 -32 c2 -9 -19 -46 -48 -82 -91 -114 -137
-138 -180 -95 -29 29 -25 66 9 101 36 36 58 37 71 3 9 -23 12 -24 27 -13 9 8
22 28 29 46 8 17 21 38 30 48 21 20 58 16 62 -8z m986 -12 c-8 -19 -73 -40
-86 -27 -14 14 29 42 64 42 20 0 26 -4 22 -15z m-2654 -19 c0 -24 -16 -43 -27
-32 -8 8 6 56 17 56 6 0 10 -11 10 -24z m3314 -15 c23 -25 18 -49 -17 -74 -20
-15 -30 -18 -38 -10 -12 12 -15 75 -4 92 10 17 40 13 59 -8z m461 -30 c-10
-17 -35 6 -35 32 l0 21 21 -21 c12 -11 18 -26 14 -32z m-2037 0 c6 -37 -14
-49 -40 -24 -26 26 -18 56 14 51 15 -2 24 -11 26 -27z m-1200 -21 c1 -9 -22
-47 -51 -85 -30 -39 -64 -89 -75 -111 -12 -23 -28 -44 -37 -47 -8 -4 -15 -15
-15 -25 0 -11 -13 -37 -28 -58 -16 -21 -52 -79 -81 -129 -29 -49 -89 -147
-132 -216 -44 -70 -84 -141 -90 -158 -6 -17 -17 -31 -25 -31 -24 0 -34 37 -34
124 0 47 -4 86 -9 86 -4 0 -16 -21 -26 -47 -10 -27 -30 -59 -45 -73 -14 -14
-40 -45 -57 -70 -46 -68 -240 -288 -388 -440 -72 -74 -177 -188 -234 -253
-142 -163 -472 -458 -771 -691 -179 -139 -435 -374 -683 -625 -219 -223 -286
-307 -428 -532 -37 -59 -100 -151 -139 -204 -111 -151 -224 -325 -312 -484
-73 -132 -91 -156 -182 -246 -107 -106 -207 -182 -225 -170 -16 9 -5 45 51
170 27 61 65 150 84 199 58 149 335 659 400 734 18 21 48 65 68 98 96 162 469
571 666 728 47 38 154 132 239 209 157 145 208 187 224 187 6 0 62 42 126 93
64 52 172 134 241 182 69 49 150 112 180 140 30 28 102 90 160 137 58 47 204
179 325 294 341 323 386 364 443 406 34 25 59 54 69 77 8 20 24 46 35 58 19
21 20 23 4 29 -10 4 -29 0 -44 -7 -15 -8 -128 -115 -252 -238 -124 -124 -252
-245 -285 -269 -82 -61 -205 -164 -360 -302 -72 -63 -162 -140 -200 -170 -39
-30 -106 -84 -150 -121 -44 -37 -156 -122 -250 -189 -93 -67 -214 -161 -269
-209 -54 -47 -135 -116 -180 -153 -113 -92 -212 -190 -441 -430 -189 -199
-270 -276 -281 -265 -3 2 40 65 94 138 55 74 110 153 123 176 33 59 323 367
510 542 222 208 315 284 410 337 94 51 137 80 319 208 207 146 290 218 661
571 358 342 481 450 552 487 52 26 71 18 63 -26 -8 -39 3 -51 40 -42 33 9 64
62 64 109 0 55 22 90 84 131 54 36 86 45 86 26 0 -6 -16 -42 -36 -81 -19 -39
-34 -75 -32 -81 6 -16 103 119 149 207 22 43 67 112 98 154 32 42 74 101 93
131 19 30 46 65 59 77 54 49 120 66 127 33z m-608 -9 c0 -5 -7 -12 -16 -15
-22 -9 -24 -8 -24 9 0 8 9 15 20 15 11 0 20 -4 20 -9z m2607 -7 c8 -23 -35
-64 -69 -64 -43 0 -32 41 17 68 28 16 45 15 52 -4z m-542 -15 c55 -15 67 -26
54 -50 -16 -30 -82 -26 -108 7 -20 25 -19 54 3 54 6 0 29 -5 51 -11z m663 -17
c4 -26 -22 -40 -43 -22 -11 9 -12 17 -4 32 13 25 43 19 47 -10z m136 12 c8
-21 -11 -44 -35 -44 -22 0 -26 29 -7 48 17 17 35 15 42 -4z m-987 -54 c-7 -53
-72 -190 -90 -190 -22 0 -134 76 -147 100 -16 30 -7 47 36 65 62 26 67 22 60
-39 -4 -30 -3 -57 2 -60 14 -8 37 24 50 70 13 46 53 94 78 94 14 0 16 -7 11
-40z m339 16 c14 -11 16 -18 8 -26 -16 -16 -55 5 -48 25 8 19 15 19 40 1z
m923 -50 c17 -20 -11 -38 -69 -44 -61 -6 -100 4 -100 24 0 21 36 33 101 33 36
1 61 -4 68 -13z m441 -20 c0 -35 -196 -184 -216 -163 -25 24 55 128 121 158
48 22 95 25 95 5z m-1555 -11 c17 -4 27 -14 31 -33 9 -36 31 -60 76 -83 65
-33 99 -99 65 -128 -8 -6 -28 -14 -45 -17 -35 -7 -129 12 -139 29 -3 5 13 28
35 49 23 21 42 41 42 43 0 3 -21 5 -46 5 -58 0 -87 15 -79 41 8 23 -1 24 -48
4 -46 -19 -47 -19 -47 3 0 27 38 82 63 91 21 9 32 8 92 -4z m1265 -19 c0 -21
-20 -30 -33 -17 -9 9 -8 14 3 21 21 14 30 12 30 -4z m-375 -42 c20 -21 15 -38
-13 -42 -24 -4 -38 18 -28 43 7 19 21 19 41 -1z m1155 -25 c0 -23 -28 -25 -36
-4 -4 8 -3 22 0 31 5 13 9 14 21 4 8 -7 15 -21 15 -31z m-786 17 c38 -16 52
-45 37 -74 -15 -28 -98 -101 -128 -113 -32 -12 -77 3 -71 24 3 6 28 25 56 40
52 28 78 59 67 77 -3 6 -25 10 -48 10 l-42 1 28 24 c32 29 54 31 101 11z
m-226 -8 c-6 -16 -36 -34 -44 -25 -9 9 15 37 33 37 8 0 13 -5 11 -12z m-528
-133 c0 -19 -43 -40 -65 -31 -14 5 -15 14 -10 49 4 23 10 46 13 51 7 12 62
-50 62 -69z m1540 32 c0 -14 -20 -37 -32 -37 -12 0 -10 24 4 38 16 16 28 15
28 -1z m1240 -12 c13 -14 19 -25 13 -25 -5 0 -20 11 -33 25 -13 14 -19 25 -13
25 5 0 20 -11 33 -25z m-2905 -60 c0 -64 -2 -69 -33 -95 l-33 -28 28 -6 c119
-28 133 -35 133 -66 0 -30 -30 -70 -52 -70 -7 0 -33 -16 -57 -35 -50 -40 -61
-38 -111 25 -37 47 -76 70 -120 70 -25 0 -30 4 -30 24 0 36 35 56 97 56 l53 0
0 50 c0 40 4 52 18 56 35 11 47 22 67 57 11 20 25 35 30 34 6 -2 10 -34 10
-72z m625 26 c0 -20 -2 -21 -15 -11 -16 13 -20 42 -8 53 10 10 23 -14 23 -42z
m1110 40 c0 -12 -29 -35 -36 -28 -11 10 5 37 21 37 8 0 15 -4 15 -9z m-1336
-17 c23 -9 20 -31 -5 -39 -25 -8 -44 7 -36 29 7 17 16 19 41 10z m123 -11 c4
-11 -26 -27 -35 -19 -2 3 -2 12 2 21 6 18 27 16 33 -2z m-3267 -46 c0 -7 -13
-26 -30 -42 l-30 -29 0 24 c0 26 26 60 47 60 7 0 13 -6 13 -13z m290 -88 c0
-41 -16 -69 -41 -69 -37 0 -44 60 -11 88 29 23 52 15 52 -19z m2724 -15 c36
-37 40 -62 6 -44 -21 11 -60 58 -60 71 0 18 20 8 54 -27z m674 -4 c32 -20 40
-43 22 -70 -9 -13 -13 -11 -29 9 l-18 24 -31 -23 c-54 -40 -82 -6 -41 51 24
34 51 37 97 9z m152 -99 c0 -104 -37 -138 -96 -88 l-27 23 27 55 c60 119 96
123 96 10z m-930 -19 c0 -21 -18 -42 -37 -42 -18 0 -16 20 4 42 21 23 33 23
33 0z m2282 -91 c26 -40 48 -81 48 -90 0 -10 18 -46 40 -82 63 -101 108 -193
135 -275 33 -100 32 -137 0 -163 -48 -37 -209 -56 -237 -27 -9 9 -18 70 -27
192 -12 167 -44 460 -56 512 -8 35 4 46 28 25 11 -10 42 -51 69 -92z m-5522
86 c0 -14 -20 -37 -32 -37 -12 0 -10 24 4 38 16 16 28 15 28 -1z m4030 -6 c0
-24 -37 -71 -56 -71 -18 0 -18 14 1 50 21 40 55 53 55 21z m-1105 -135 c21
-78 13 -100 -28 -73 -35 22 -64 157 -40 181 15 14 50 -43 68 -108z m335 59 c0
-42 -29 -75 -65 -75 -35 0 -32 26 6 73 39 48 59 48 59 2z m-493 -162 c-3 -10
-5 -4 -5 12 0 17 2 24 5 18 2 -7 2 -21 0 -30z m613 17 c30 -30 21 -140 -12
-162 -22 -13 -68 -9 -74 7 -8 21 14 45 41 45 33 0 36 9 16 49 -33 64 -35 81
-12 81 12 0 30 -9 41 -20z m445 10 c7 -11 -28 -34 -76 -49 -21 -7 -51 -25 -68
-41 -31 -30 -64 -37 -90 -21 -21 13 -2 33 46 50 21 8 56 27 77 42 40 29 99 39
111 19z m230 -54 c13 -19 13 -28 4 -50 -12 -27 -41 -42 -59 -31 -18 11 -12 83
8 94 25 15 30 14 47 -13z m259 -58 c10 -44 16 -54 37 -56 13 -2 32 -11 41 -19
12 -10 41 -16 92 -17 56 -1 80 -6 92 -18 16 -16 16 -18 0 -42 -15 -23 -23 -26
-79 -26 -107 1 -176 50 -227 161 -23 51 -25 70 -8 87 19 19 39 -8 52 -70z
m-1227 46 c8 -20 -17 -36 -34 -22 -10 8 -10 14 -2 24 15 18 28 18 36 -2z
m-3372 -53 c-24 -21 -40 -30 -43 -23 -7 21 6 41 40 62 48 29 49 4 3 -39z
m1180 38 c30 -11 60 -29 65 -39 13 -25 13 -136 -1 -199 -6 -27 -23 -68 -39
-89 -58 -80 -80 -141 -106 -287 -8 -49 -22 -103 -29 -120 -8 -16 -19 -61 -25
-100 -6 -38 -29 -131 -50 -205 -21 -74 -73 -270 -114 -435 -41 -165 -84 -326
-95 -359 -32 -90 -52 -217 -60 -361 l-6 -130 -47 -22 c-55 -26 -87 -66 -69
-87 6 -7 30 -17 53 -20 23 -4 56 -18 73 -31 55 -41 131 -213 142 -322 5 -47 3
-54 -23 -78 -16 -15 -51 -38 -79 -52 -27 -14 -133 -78 -235 -143 -454 -286
-734 -437 -1061 -568 -196 -79 -317 -117 -398 -124 l-54 -5 6 176 c9 217 20
291 55 360 35 70 71 89 193 102 185 19 329 66 534 173 144 75 261 151 373 243
160 131 218 173 283 208 81 43 94 56 79 84 -19 37 -46 44 -93 23 -52 -23 -215
-146 -327 -247 -204 -184 -488 -328 -752 -381 -77 -16 -120 -13 -145 8 -42 35
27 244 137 413 21 33 44 82 50 108 41 185 330 757 480 952 25 33 68 100 95
149 26 49 86 136 132 194 46 58 91 119 100 136 19 37 46 74 129 178 34 42 81
109 104 148 23 39 73 106 111 148 38 41 120 147 182 235 183 260 197 278 230
295 18 9 47 34 67 55 40 43 58 45 135 16z m5141 -28 c96 -67 182 -172 379
-461 54 -80 151 -210 214 -290 64 -80 152 -197 196 -260 43 -63 118 -167 166
-230 48 -63 96 -134 108 -158 12 -23 64 -109 115 -191 51 -83 97 -162 100
-176 4 -15 33 -71 65 -124 32 -53 115 -206 186 -341 70 -135 162 -303 204
-375 132 -224 174 -342 138 -390 -30 -40 -200 -29 -407 26 -158 42 -185 57
-348 186 -51 41 -129 97 -172 123 -44 27 -114 74 -157 106 -123 91 -231 153
-307 175 -86 25 -134 54 -146 85 -5 13 -16 68 -25 121 -23 143 -91 397 -232
873 -30 102 -66 235 -79 295 -14 61 -38 151 -54 200 -37 115 -72 283 -68 326
2 25 11 39 35 54 18 11 32 22 33 25 0 3 -27 17 -60 33 -98 45 -137 135 -105
243 13 47 28 69 76 116 33 32 63 58 68 58 4 0 39 -22 77 -49z m-5456 -22 c0
-19 -95 -154 -210 -299 -142 -179 -261 -340 -367 -497 -47 -70 -109 -157 -138
-193 -28 -36 -81 -108 -118 -160 -85 -122 -92 -130 -105 -130 -18 0 -50 54
-73 123 l-21 66 25 43 c14 24 105 129 203 233 99 105 246 269 328 365 277 324
476 512 476 449z m2620 -4 c0 -16 -27 -32 -37 -22 -3 4 -3 13 0 22 8 20 37 20
37 0z m304 -11 c8 -20 -34 -47 -51 -32 -17 13 -17 45 0 51 19 6 45 -3 51 -19z
m456 -39 c0 -16 -27 -32 -37 -21 -7 7 16 36 28 36 5 0 9 -7 9 -15z m152 -70
c11 -42 4 -59 -22 -45 -21 11 -36 52 -25 70 12 20 38 6 47 -25z m-1302 -5 c13
-9 13 -11 0 -20 -18 -12 -21 -12 -39 -1 -15 10 -7 31 12 31 7 0 19 -5 27 -10z
m120 -69 c0 -12 -29 -35 -36 -28 -11 10 5 37 21 37 8 0 15 -4 15 -9z m1606
-69 c-32 -32 -35 -16 -4 23 14 18 23 24 26 16 2 -7 -7 -25 -22 -39z m-2506
-16 c40 -18 59 -71 66 -183 8 -120 2 -136 -71 -174 l-46 -24 -29 32 c-56 63
-67 170 -25 252 14 28 25 63 25 79 0 46 13 49 80 18z m2738 0 c6 -13 14 -64
17 -113 3 -48 14 -108 22 -133 l17 -45 8 33 c5 18 15 32 24 32 16 0 19 -7 29
-64 8 -50 46 -89 79 -80 53 13 93 -79 48 -113 -22 -17 -67 -16 -102 2 -35 18
-34 23 -20 -95 16 -128 45 -261 89 -405 22 -71 45 -155 51 -185 16 -83 22 -89
61 -61 l32 24 -6 -24 c-3 -13 -11 -43 -18 -66 -11 -36 -10 -47 6 -82 14 -33
15 -43 5 -56 -7 -8 -18 -15 -26 -15 -21 0 -61 58 -102 146 l-38 82 -41 -44
c-39 -40 -86 -64 -100 -50 -3 3 15 26 42 50 33 31 46 50 41 61 -5 13 0 16 22
13 24 -3 27 0 25 23 -1 15 -22 76 -48 135 -26 60 -53 133 -60 162 -9 32 -30
73 -55 104 -22 28 -43 62 -46 75 -9 34 23 232 41 260 22 32 96 33 117 1 23
-35 28 -6 7 41 l-19 43 -67 -2 c-38 -1 -73 -2 -79 -1 -7 1 -15 30 -19 69 -4
37 -13 82 -21 101 -13 30 -12 42 1 95 26 100 59 133 83 82z m-620 -5 c28 -17
42 -135 17 -145 -26 -9 -45 22 -45 75 0 27 -3 49 -8 49 -4 0 -25 -14 -46 -32
l-39 -32 -28 34 c-16 19 -26 37 -21 41 16 16 149 24 170 10z m-376 -49 c35
-59 46 -345 14 -372 -18 -14 -56 16 -56 46 0 33 -17 30 -38 -6 -22 -39 -45
-45 -162 -45 -78 0 -101 4 -130 21 -47 27 -48 52 -5 104 20 24 45 61 56 83 19
37 21 38 39 22 17 -16 19 -15 29 3 6 12 8 40 5 66 -4 25 -3 46 2 46 35 -1 65
-66 76 -164 5 -45 13 -85 19 -91 16 -16 29 15 29 75 l1 55 27 -52 c14 -29 29
-53 33 -53 4 0 10 44 13 98 9 132 17 192 25 192 4 0 14 -12 23 -28z m178 -21
c0 -20 -18 -31 -51 -31 -23 0 -24 8 -2 32 22 24 53 24 53 -1z m362 -11 c-2
-17 3 -46 13 -66 9 -19 14 -43 10 -52 -3 -9 0 -58 6 -109 7 -51 10 -96 6 -99
-3 -4 -19 1 -33 11 -24 15 -29 16 -38 3 -6 -8 -21 -20 -33 -26 -19 -10 -24 -9
-32 6 -5 10 -11 31 -13 47 -3 28 0 30 44 40 27 5 48 13 48 18 0 4 0 11 0 15 0
5 -11 14 -24 20 -49 22 -41 120 15 191 30 38 37 38 31 1z m658 -5 c5 -14 32
-58 60 -97 30 -42 50 -81 48 -93 -4 -30 -44 -31 -83 -1 -18 14 -38 26 -44 26
-28 0 -48 76 -42 168 2 33 48 31 61 -3z m813 -53 c37 -41 108 -282 123 -419 6
-60 5 -63 -17 -72 -13 -4 -96 -12 -185 -16 -177 -8 -206 -2 -233 49 -14 26
-14 41 8 280 12 135 23 150 132 176 97 24 151 25 172 2z m-3110 -59 c11 -10
-13 -33 -34 -33 -18 0 -26 20 -12 33 8 9 38 9 46 0z m1237 -98 c0 -41 -4 -85
-10 -100 -10 -27 -49 -48 -63 -35 -13 12 14 193 31 207 30 25 42 4 42 -72z
m-1484 11 c44 -44 57 -76 29 -76 -8 0 -15 7 -15 15 0 16 -16 20 -24 6 -17 -26
-195 -43 -234 -22 -29 16 -37 48 -18 76 19 29 41 32 54 9 13 -24 97 -14 125
15 12 12 26 21 31 21 5 0 28 -20 52 -44z m1603 -16 c17 -22 40 -40 50 -40 24
0 44 -24 39 -47 -2 -12 -11 -17 -25 -15 -12 2 -36 -4 -52 -13 -29 -15 -31 -14
-47 10 -20 31 -36 102 -29 126 10 29 29 23 64 -21z m-1362 11 c43 -27 52 -59
23 -83 -21 -17 -24 -17 -41 -2 -18 16 -29 15 -60 -8 -19 -13 -47 -5 -55 17
-11 27 5 64 34 79 37 20 61 20 99 -3z m1972 -20 c36 -23 -31 -71 -70 -50 -25
13 -20 30 12 46 29 15 39 16 58 4z m-191 -38 c-2 -30 -7 -38 -23 -38 -26 0
-31 31 -9 56 26 29 36 23 32 -18z m-2567 -37 c30 -13 70 -26 90 -30 49 -9 83
-46 76 -83 -31 -163 -80 -311 -166 -509 -33 -78 -61 -146 -61 -151 0 -6 -34
-66 -75 -134 -41 -68 -75 -130 -75 -137 0 -23 72 15 112 58 57 63 123 203 220
464 61 167 92 264 98 316 11 78 33 135 56 144 13 5 128 -17 259 -50 33 -8 76
-26 96 -40 23 -16 47 -24 65 -22 26 3 29 0 32 -28 2 -17 -9 -89 -23 -159 -15
-70 -24 -133 -21 -141 7 -17 -14 -30 -24 -15 -4 7 -5 34 -2 60 4 49 -11 96
-29 86 -5 -4 -9 -38 -9 -77 0 -50 -5 -76 -15 -88 -19 -20 -32 -90 -18 -90 5 0
22 14 38 32 l28 31 24 -29 c22 -27 23 -35 21 -149 l-3 -120 28 -3 28 -3 -45
-49 c-25 -27 -46 -54 -46 -61 0 -6 7 -32 15 -58 8 -25 17 -63 20 -83 5 -29 13
-42 36 -54 22 -11 29 -21 27 -37 -4 -29 -38 -36 -38 -8 0 27 -8 26 -36 0 -33
-31 -54 -19 -54 33 0 48 -17 172 -27 203 -6 19 -7 18 -14 -5 -11 -39 -10 -99
2 -122 24 -45 -19 -100 -61 -78 -24 13 -25 26 -5 46 19 19 19 44 2 68 -16 21
-24 15 -57 -41 -15 -25 -27 -33 -49 -33 -37 0 -40 9 -33 91 8 114 -16 159 -87
159 -53 0 -73 -21 -69 -74 l3 -41 40 3 c51 4 86 -18 66 -42 -8 -10 -29 -16
-52 -16 -57 0 -73 -30 -75 -142 -1 -49 -4 -92 -8 -95 -10 -10 -26 17 -26 43 0
12 -11 33 -25 48 -14 15 -25 34 -25 42 0 9 -7 14 -17 12 -16 -3 -18 -17 -18
-120 0 -130 9 -155 44 -124 29 26 100 32 139 12 19 -10 56 -16 95 -16 35 0 86
-7 113 -16 65 -21 410 -32 443 -14 18 9 26 9 39 -4 10 -8 47 -20 84 -26 86
-13 100 -19 96 -39 -5 -23 -59 -38 -194 -51 -109 -11 -127 -11 -224 9 -214 43
-484 63 -549 40 -27 -10 -35 -8 -53 7 -17 16 -37 19 -143 19 -68 0 -127 3
-131 7 -13 14 -5 72 11 85 18 13 40 8 66 -14 24 -20 27 -8 13 58 -14 69 -19
76 -54 81 -20 2 -26 9 -28 36 -3 26 1 34 19 41 30 10 57 3 69 -19 5 -10 20
-55 33 -100 13 -46 26 -79 29 -74 11 19 19 147 13 194 -8 60 -42 114 -74 118
-14 2 -33 -6 -50 -21 -33 -31 -64 -47 -90 -47 -26 0 -52 50 -76 145 -23 89
-16 121 28 133 l32 8 -4 130 -3 131 31 35 c36 42 38 54 11 83 -19 20 -19 24
-5 65 20 55 19 69 -5 121 -28 63 -26 133 6 197 25 50 86 112 110 112 6 0 36
-11 65 -24z m1206 -2 c6 -17 -12 -64 -26 -64 -13 0 -19 33 -10 58 10 26 27 29
36 6z m4673 -51 c0 -7 -6 -13 -14 -13 -23 0 -46 29 -46 58 l0 26 30 -29 c17
-16 30 -35 30 -42z m-2489 1 c69 -50 113 -109 113 -150 0 -74 -76 -121 -110
-69 -44 67 -91 255 -64 255 7 0 34 -16 61 -36z m-3897 -40 c9 -20 15 -39 12
-41 -8 -8 -75 -8 -83 0 -9 10 27 77 42 77 6 0 19 -16 29 -36z m3015 -45 c9
-52 6 -228 -5 -316 -7 -60 -31 -57 -39 5 -3 26 -13 76 -23 112 l-17 65 -5 -45
c-10 -79 -41 -96 -60 -32 -13 45 -26 262 -16 262 5 0 20 -9 34 -20 l26 -21 35
35 c44 44 58 35 70 -45z m-2888 27 c-25 -40 -27 -73 -6 -96 15 -16 13 -17 -20
-16 -34 1 -38 -2 -50 -37 -13 -39 -41 -77 -56 -77 -5 0 -16 11 -25 25 -16 24
-15 26 15 60 17 20 31 41 31 48 0 30 94 127 123 127 5 0 -1 -15 -12 -34z
m2569 11 c0 -14 -20 -37 -32 -37 -12 0 -10 24 4 38 16 16 28 15 28 -1z m-551
-27 c21 -10 52 -31 69 -45 l32 -26 -20 -27 c-10 -15 -24 -53 -30 -85 -7 -33
-21 -68 -31 -78 -23 -23 -19 -45 16 -83 33 -36 60 -34 74 5 13 37 35 34 39 -6
4 -34 -18 -55 -58 -55 -54 0 -66 -49 -25 -98 31 -37 21 -47 -50 -47 -37 0 -50
-4 -50 -14 0 -8 23 -28 50 -44 28 -16 52 -33 53 -38 6 -15 25 -10 49 13 32 30
57 15 61 -37 4 -48 -3 -79 -24 -100 -21 -21 -41 -5 -50 41 -8 42 -14 42 -36 4
-19 -33 -39 -38 -58 -15 -7 8 -19 15 -27 15 -13 0 -14 -12 -8 -73 8 -94 21
-148 35 -157 6 -4 51 -13 98 -19 107 -15 152 -28 152 -46 0 -22 -35 -36 -110
-42 -59 -5 -73 -3 -103 16 -48 29 -67 20 -67 -34 0 -53 17 -69 94 -89 33 -8
66 -22 75 -31 15 -15 12 -20 -34 -61 -27 -25 -60 -47 -73 -50 -28 -8 -52 11
-52 40 0 31 -24 61 -42 53 -9 -3 -19 -23 -22 -44 -6 -30 -50 -123 -59 -123 -1
0 -3 26 -3 57 -1 32 -5 74 -8 93 -8 45 4 63 46 64 38 1 37 -4 18 146 -8 60 -8
159 0 339 11 267 19 350 47 469 l17 72 -41 43 c-75 77 -81 117 -18 117 20 0
53 -9 74 -20z m1085 -36 c13 -34 19 -154 8 -154 -15 0 -38 37 -46 73 -7 31
-30 35 -58 10 -25 -22 -23 -41 7 -65 20 -15 25 -28 23 -51 -3 -29 0 -32 34
-38 65 -10 88 -51 51 -91 -21 -23 -53 -24 -53 0 0 9 -5 24 -10 32 -9 13 -12
13 -24 -3 -8 -11 -18 -36 -21 -58 -4 -21 -10 -39 -14 -39 -11 0 -40 93 -53
170 -19 112 6 175 86 211 50 23 62 23 70 3z m-1851 -34 c17 -20 28 -48 32 -85
11 -88 47 -99 85 -25 23 46 43 58 65 40 41 -34 -3 -117 -74 -139 -22 -6 -47
-22 -56 -34 -14 -20 -14 -23 5 -37 25 -19 34 -66 25 -127 l-8 -48 -13 33 c-16
38 -25 39 -64 10 -34 -25 -54 -15 -64 32 -3 17 -12 30 -20 30 -23 0 -39 38
-32 74 4 17 19 49 33 71 21 31 28 53 28 97 1 40 7 63 19 77 18 20 18 21 -5 40
-24 20 -24 20 -2 21 12 0 32 -13 46 -30z m447 13 c-1 -11 -26 -43 -33 -43 -4
0 -1 11 5 25 10 23 28 35 28 18z m-72 -27 c3 -12 -1 -17 -10 -14 -7 3 -15 13
-16 22 -3 12 1 17 10 14 7 -3 15 -13 16 -22z m636 8 c13 -34 18 -180 7 -208
-18 -45 -32 -19 -38 72 -8 112 10 191 31 136z m283 -20 c8 -21 -13 -42 -28
-27 -13 13 -5 43 11 43 6 0 13 -7 17 -16z m-118 -154 c17 -120 21 -138 37
-155 34 -34 74 24 74 108 0 39 4 57 15 60 8 4 18 21 23 39 l9 33 7 -42 c4 -24
18 -53 33 -67 l26 -26 -26 0 c-23 0 -26 -5 -36 -66 -7 -37 -10 -68 -8 -70 2
-2 18 0 35 5 20 6 32 6 32 0 0 -20 -35 -62 -73 -86 -21 -13 -43 -37 -49 -54
-21 -61 -58 -26 -67 64 -6 58 -8 63 -39 77 -23 11 -35 25 -42 53 -11 39 -6
132 12 202 13 52 22 33 37 -75z m1131 82 c0 -15 -22 -30 -36 -25 -11 4 -12 9
-3 19 12 15 39 19 39 6z m838 -28 c33 -9 88 -123 97 -199 4 -33 17 -87 30
-120 13 -33 37 -109 54 -170 18 -60 40 -130 50 -155 11 -25 24 -82 31 -127 6
-45 31 -146 55 -223 52 -163 54 -201 20 -314 -13 -44 -29 -108 -34 -142 -13
-81 -30 -121 -96 -214 l-55 -78 -162 111 c-89 62 -183 131 -208 154 l-45 42 0
88 c0 107 12 195 29 218 12 17 19 17 95 5 45 -7 85 -10 89 -6 13 14 -17 42
-89 83 -92 53 -105 69 -113 135 -8 68 4 110 49 159 19 21 35 46 35 54 0 8 -14
30 -31 49 -16 19 -33 51 -36 71 -8 51 -25 55 -51 10 -11 -17 -12 -15 -10 20 3
35 6 40 31 43 29 4 49 32 62 89 10 49 -2 71 -53 97 -26 13 -62 42 -80 65 -23
28 -45 44 -75 52 -23 6 -50 18 -60 27 -26 23 -39 83 -26 121 15 41 52 42 99 1
42 -35 51 -36 76 -9 25 28 50 40 109 55 54 13 176 18 213 8z m-2824 -26 c34
-48 9 -101 -32 -72 -24 17 -30 62 -10 82 17 17 25 15 42 -10z m2176 -3 c17
-20 -9 -21 -36 0 -19 14 -19 14 2 15 12 0 27 -7 34 -15z m40 -71 c13 -13 13
-16 0 -24 -32 -21 -120 -6 -120 21 0 30 91 33 120 3z m-3758 -6 c7 -20 -28
-120 -45 -129 -32 -19 -87 29 -87 76 0 24 59 65 95 65 18 0 35 -5 37 -12z
m3536 -55 c-2 -14 -9 -28 -15 -31 -9 -2 -13 11 -13 49 0 51 1 53 16 31 8 -12
14 -34 12 -49z m2378 -5 c94 -71 577 -550 674 -668 43 -52 120 -146 171 -209
52 -62 106 -133 121 -157 15 -25 50 -72 78 -105 28 -33 56 -75 64 -93 7 -18
37 -65 65 -105 29 -40 57 -85 62 -99 6 -15 26 -40 45 -56 19 -15 62 -69 96
-119 34 -50 147 -206 253 -346 284 -379 328 -448 304 -477 -24 -29 -56 -19
-333 105 -286 129 -395 159 -662 186 -83 8 -163 19 -177 24 -14 6 -37 29 -51
53 -34 59 -120 260 -140 332 -10 32 -44 117 -78 189 -33 72 -69 156 -79 185
-10 29 -35 81 -55 114 -20 33 -50 86 -65 117 -16 31 -47 81 -68 111 -22 30
-50 82 -62 115 -29 82 -95 197 -199 345 -125 179 -180 292 -180 369 1 72 91
241 129 241 10 0 49 -23 87 -52z m-3158 -6 c4 -23 -33 -65 -50 -59 -20 6 -19
21 2 55 22 36 43 38 48 4z m-4762 -69 c62 -90 67 -111 40 -169 -13 -27 -44
-74 -68 -104 -56 -68 -212 -327 -262 -435 -21 -44 -55 -123 -76 -175 -21 -52
-59 -140 -85 -195 -26 -55 -55 -133 -66 -173 -12 -48 -32 -93 -58 -130 -25
-35 -56 -102 -80 -174 -86 -248 -151 -395 -195 -439 -39 -39 -89 -48 -336 -57
l-225 -9 -90 -36 c-49 -21 -145 -69 -212 -107 -67 -39 -150 -81 -185 -94 -153
-58 -334 -82 -346 -48 -6 18 95 115 145 140 44 23 80 60 113 117 13 22 54 81
90 130 37 50 97 142 134 206 36 63 90 143 119 177 30 34 73 97 96 140 23 42
67 109 97 147 31 39 99 131 152 205 163 230 399 499 669 760 134 130 386 323
503 386 54 29 67 23 126 -63z m5183 78 c19 -12 -3 -51 -29 -51 -34 0 -25 55
10 59 3 0 11 -3 19 -8z m-1411 -19 c5 -17 -27 -27 -41 -13 -9 9 -8 14 3 21 18
11 32 8 38 -8z m522 -1 c16 -30 12 -67 -10 -92 -20 -24 -20 -24 -35 -4 -10 13
-13 30 -9 55 11 58 34 76 54 41z m-700 -16 c20 -24 5 -28 -21 -6 -19 16 -20
20 -8 21 9 0 22 -7 29 -15z m2100 0 c7 -9 10 -19 6 -22 -8 -9 -38 9 -44 25 -5
17 23 15 38 -3z m-2275 -69 c-8 -51 5 -65 40 -46 28 15 57 7 49 -14 -3 -8 -19
-19 -35 -25 -20 -7 -35 -22 -44 -46 -19 -43 -51 -48 -61 -10 -10 41 1 131 19
159 27 40 39 33 32 -18z m2422 14 c18 -17 61 -44 93 -60 33 -17 66 -40 75 -53
21 -33 30 -133 15 -186 -10 -39 -10 -47 4 -57 21 -15 20 -27 -4 -49 -27 -25
-25 -44 6 -55 19 -8 24 -15 19 -28 -35 -87 -55 -146 -55 -166 0 -37 -33 -70
-91 -90 l-53 -19 83 -28 c117 -40 114 -36 109 -149 -5 -96 -19 -145 -41 -137
-7 2 -15 31 -18 65 -3 34 -8 65 -12 68 -3 3 -14 0 -25 -7 -28 -17 -86 14 -126
70 -25 34 -31 52 -31 94 0 50 -1 52 -30 57 -34 6 -35 21 -5 80 27 54 54 72
111 78 l52 5 -52 24 c-52 25 -70 54 -57 89 5 13 17 14 71 9 55 -6 69 -5 85 10
44 40 17 65 -89 81 -24 4 -55 17 -69 29 -25 22 -26 27 -25 121 1 82 7 194 12
227 2 13 13 8 48 -23z m-769 8 c-3 -7 -15 -15 -28 -16 -21 -3 -22 -2 -11 12
16 19 44 21 39 4z m-114 -44 c20 -20 20 -33 -1 -41 -18 -7 -57 33 -47 48 8 14
31 11 48 -7z m-3060 -18 c65 -27 99 -103 55 -126 -11 -6 -51 -14 -88 -17 -61
-5 -70 -3 -79 13 -13 26 -23 107 -14 120 17 26 77 31 126 10z m2976 -41 c0 -8
-9 -19 -19 -25 -27 -14 -40 9 -16 27 24 17 35 17 35 -2z m117 -21 c8 -21 -13
-42 -28 -27 -13 13 -5 43 11 43 6 0 13 -7 17 -16z m-1771 -111 c-3 -8 -10 -11
-16 -8 -14 9 -12 82 3 108 11 20 12 17 15 -32 2 -29 1 -60 -2 -68z m89 56 c0
-24 -5 -34 -15 -34 -16 0 -25 37 -16 62 10 26 31 8 31 -28z m1101 -15 c4 -20
2 -46 -5 -60 -19 -41 -143 -82 -162 -53 -14 23 -10 71 8 91 22 24 32 23 64 -8
27 -26 49 -26 49 1 0 23 19 65 29 65 6 0 13 -16 17 -36z m-824 -8 c13 -29 5
-56 -16 -56 -17 0 -31 42 -22 65 8 22 25 18 38 -9z m1506 -18 c16 -16 15 -68
-1 -68 -20 0 -37 21 -37 45 0 35 17 44 38 23z m-431 -24 c7 -19 -20 -49 -36
-40 -12 8 -15 39 -4 49 12 12 33 7 40 -9z m-2696 -15 c12 -20 12 -22 -20 -70
-29 -43 -29 -44 -12 -64 29 -31 52 -113 58 -200 5 -72 3 -83 -17 -108 -30 -38
-114 -79 -153 -75 -43 4 -46 21 -54 290 l-6 227 39 6 c21 3 46 8 54 10 30 7
103 -3 111 -16z m1530 -29 c18 -87 40 -252 35 -257 -8 -8 -35 16 -68 61 -21
30 -25 42 -17 53 11 13 10 34 -7 141 -7 43 -7 44 22 40 23 -2 30 -9 35 -38z
m1249 -38 c0 -33 -16 -18 -26 23 -7 27 -6 29 9 16 10 -7 17 -25 17 -39z m-182
-34 c9 -9 18 -9 38 1 34 15 45 5 51 -51 3 -29 0 -49 -11 -63 -15 -20 -16 -20
-39 9 -13 16 -39 34 -58 40 -36 12 -48 38 -29 61 15 18 32 19 48 3z m-124 -24
c17 -7 22 -49 7 -58 -24 -15 -62 29 -46 54 7 12 17 13 39 4z m-280 -27 c8 -12
7 -20 -1 -28 -16 -16 -33 -2 -33 27 0 28 17 28 34 1z m167 -20 c-15 -15 -24
-18 -32 -10 -8 8 -4 15 12 26 31 22 46 9 20 -16z m1394 -2 c0 -10 -6 -20 -12
-22 -8 -3 -13 5 -13 22 0 17 5 25 13 23 6 -3 12 -13 12 -23z m-2098 -10 c24
-17 34 -56 21 -79 -11 -19 -29 -21 -46 -4 -9 9 -8 16 6 31 16 18 16 20 -13 43
-26 21 -27 24 -10 24 11 0 30 -7 42 -15z m1737 -49 c0 -34 -6 -53 -22 -69
l-22 -21 0 46 c0 56 15 101 33 95 7 -2 12 -22 11 -51z m-2160 28 c24 -9 19
-21 -11 -29 -38 -9 -51 -21 -58 -56 -7 -32 -29 -38 -44 -11 -15 28 17 71 69
94 20 9 26 9 44 2z m2502 -71 c-11 -61 -16 -72 -37 -84 -23 -12 -59 -3 -59 14
0 27 66 107 88 107 11 0 13 -8 8 -37z m-181 -23 c-12 -13 -22 -17 -28 -11 -13
13 1 31 25 31 21 0 21 -1 3 -20z m-833 -27 c20 -18 24 -48 6 -59 -14 -9 -48
31 -48 57 0 23 17 24 42 2z m-1488 -2 c7 -10 -22 -37 -30 -28 -9 8 3 37 15 37
5 0 12 -4 15 -9z m456 -36 c0 -13 14 -40 30 -58 34 -39 36 -49 16 -66 -28 -23
-89 100 -72 144 8 23 26 9 26 -20z m-982 -10 c8 -18 8 -26 0 -31 -12 -8 -38
22 -38 43 0 22 26 14 38 -12z m2381 -27 c12 -21 13 -29 2 -41 -17 -21 -37 -12
-51 23 -22 53 21 69 49 18z m302 12 c30 -16 24 -40 -10 -40 -29 0 -42 14 -33
38 5 15 17 15 43 2z m-2493 -47 c2 -28 -3 -47 -17 -64 -25 -30 -39 -18 -41 36
-3 59 -2 63 18 68 30 8 37 1 40 -40z m352 17 c0 -10 -5 -22 -10 -25 -13 -8
-24 20 -16 41 8 20 26 9 26 -16z m1158 8 c35 -29 -17 -61 -64 -39 -28 12 -32
47 -6 54 20 5 52 -2 70 -15z m1292 -116 c0 -21 -18 -42 -37 -42 -20 0 -27 28
-13 45 18 21 50 19 50 -3z m-3760 -40 c0 -44 -51 -136 -77 -140 -17 -3 -23 3
-28 28 -12 54 2 99 38 120 46 29 67 26 67 -8z m3676 -15 c17 -23 40 -55 50
-72 l18 -30 -28 25 c-27 24 -86 102 -86 114 0 16 18 1 46 -37z m-376 3 c0 -34
23 -41 39 -13 9 17 12 16 35 -6 41 -39 30 -61 -31 -61 -14 0 -40 -9 -58 -20
l-33 -20 -11 65 c-7 36 -9 70 -6 75 4 6 19 10 36 10 26 0 29 -3 29 -30z m-503
-5 c3 -9 3 -19 -1 -22 -7 -7 -36 16 -36 28 0 15 30 10 37 -6z m301 -17 c-2
-13 -10 -23 -18 -23 -8 0 -16 10 -18 23 -3 17 2 22 18 22 16 0 21 -5 18 -22z
m-2973 -22 c9 -13 18 -39 21 -58 7 -42 -29 -91 -80 -108 -39 -12 -71 -44 -61
-59 10 -17 30 -13 50 9 24 26 86 27 109 1 15 -17 16 -22 3 -52 -8 -19 -29 -47
-46 -63 -17 -17 -31 -33 -31 -36 0 -4 23 -1 52 6 28 8 53 12 55 10 2 -1 -40
-38 -92 -82 -52 -43 -95 -83 -95 -87 0 -5 33 10 73 33 121 69 156 83 173 70
21 -19 17 -43 -13 -72 -32 -30 -129 -80 -190 -98 -61 -19 -71 -6 -75 88 l-3
77 -35 5 c-33 5 -35 8 -38 45 -5 60 17 183 42 240 29 63 114 155 144 155 12 0
29 -11 37 -24z m2705 -31 c7 -9 10 -19 6 -22 -8 -9 -38 9 -44 25 -5 17 23 15
38 -3z m1052 -32 c58 -53 118 -131 118 -154 0 -23 -21 -33 -53 -25 -44 11
-187 146 -187 178 0 4 7 14 16 22 25 26 61 19 106 -21z m-710 6 c11 -6 18 -21
18 -38 0 -33 17 -50 74 -72 l40 -16 -41 -22 c-49 -24 -71 -26 -97 -6 -17 13
-21 13 -31 -1 -6 -9 -33 -20 -60 -25 -27 -5 -56 -16 -66 -25 -10 -9 -22 -13
-28 -10 -6 4 -21 0 -33 -8 -56 -35 -248 -49 -312 -22 -30 12 -36 12 -50 -2
-13 -13 -19 -14 -40 -3 -29 16 -51 10 -66 -18 -9 -17 -5 -27 25 -59 43 -48 44
-62 5 -62 -46 0 -70 46 -70 133 0 62 2 68 24 77 14 5 71 7 128 4 83 -5 117 -2
175 14 62 17 75 18 90 6 29 -21 41 -17 87 33 l44 47 31 -33 c29 -31 33 -32 54
-18 17 12 22 24 21 58 -1 24 -5 55 -9 68 -8 23 -7 24 31 17 21 -4 47 -12 56
-17z m-404 -11 c-6 -17 -36 -34 -45 -24 -4 4 1 14 11 22 24 17 39 18 34 2z
m892 -37 c11 -22 14 -105 3 -99 -5 2 -20 10 -35 17 -36 18 -52 5 -68 -57 -15
-61 -25 -72 -66 -72 -46 0 -83 19 -90 47 -4 13 -25 39 -47 58 -37 32 -40 37
-28 59 7 13 23 29 36 36 19 10 27 9 49 -5 14 -9 33 -14 42 -11 15 6 16 1 11
-39 -11 -80 13 -104 32 -31 6 25 22 57 35 73 24 27 24 28 45 9 23 -21 23 -21
40 12 14 27 27 28 41 3z m-3125 -16 c31 -9 91 -15 158 -15 99 0 111 -2 140
-24 18 -13 49 -27 69 -31 58 -11 77 -53 36 -79 -13 -8 -22 -5 -41 12 -20 19
-26 20 -36 9 -18 -23 -33 -123 -34 -243 -2 -102 0 -115 21 -143 34 -47 26 -80
-18 -66 -31 10 -48 89 -60 278 -6 95 -12 179 -14 187 -5 32 -28 -120 -33 -220
-6 -129 12 -223 63 -330 20 -41 39 -97 43 -124 12 -94 44 -65 61 55 12 81 37
145 68 172 20 18 21 18 37 -12 8 -17 17 -31 19 -31 3 0 10 17 16 38 42 128 99
61 66 -76 -11 -48 -13 -76 -7 -99 6 -21 6 -35 -1 -39 -18 -11 -32 15 -38 69
-4 40 -9 53 -24 55 -29 6 -36 -15 -36 -109 l0 -86 83 -6 c168 -12 632 -126
609 -149 -5 -5 -103 -9 -218 -9 -162 0 -219 3 -252 15 -24 9 -119 32 -210 51
-183 39 -281 67 -319 92 -21 14 -70 73 -161 197 -17 23 -22 42 -20 71 3 38 1
40 -27 43 -69 8 -124 115 -79 153 13 11 24 10 66 -5 27 -9 52 -15 54 -13 3 2
0 26 -6 52 -6 26 -8 50 -4 54 3 3 27 6 52 6 41 0 48 3 61 29 19 39 4 60 -44
64 -60 5 -83 -5 -111 -49 -24 -39 -26 -40 -44 -24 -10 9 -26 47 -34 84 -17 73
-41 101 -87 101 -18 0 -32 7 -39 21 -13 22 -4 79 14 92 17 12 204 0 261 -18z
m3290 -91 c14 -9 25 -23 25 -31 0 -8 25 -40 55 -70 59 -59 70 -94 36 -113 -45
-24 -149 -1 -192 42 -34 35 -37 57 -9 81 14 11 20 29 20 55 0 56 19 67 65 36z
m-1706 -23 c16 -9 16 -16 3 -96 -14 -84 -14 -87 7 -106 14 -13 19 -28 16 -42
-22 -99 -55 -262 -55 -275 0 -34 28 13 50 83 23 78 44 115 64 115 10 0 12 -13
8 -50 -4 -39 -1 -50 10 -50 8 0 20 11 26 25 15 32 40 32 52 -1 13 -34 3 -71
-21 -77 -29 -8 -23 -27 11 -39 33 -11 35 -31 4 -36 -10 -2 -29 -13 -41 -25
-13 -11 -25 -18 -27 -16 -3 2 0 26 6 53 7 34 7 51 -1 59 -18 18 -59 -9 -76
-49 -8 -20 -33 -56 -55 -80 -22 -24 -40 -52 -40 -61 -1 -25 -51 -114 -72 -127
-14 -9 -23 -5 -44 16 l-27 26 35 34 c51 48 85 190 74 311 -3 34 -7 109 -8 167
-2 77 -7 113 -19 131 -24 36 -33 87 -19 104 14 17 111 21 139 6z m266 -11 c15
-17 16 -20 2 -25 -8 -4 -30 -5 -49 -3 -25 2 -34 8 -36 26 -3 19 1 22 31 22 21
0 41 -7 52 -20z m-1315 -9 c5 -11 10 -44 10 -75 0 -45 -4 -58 -22 -70 -46 -32
-65 41 -32 124 18 44 28 49 44 21z m128 -13 c17 -17 15 -45 -4 -52 -25 -10
-33 -7 -44 13 -7 15 -6 23 6 35 19 19 26 20 42 4z m3804 -12 c72 -30 184 -99
309 -192 53 -40 112 -80 131 -89 18 -10 85 -54 148 -100 170 -122 250 -172
363 -225 127 -60 166 -67 404 -76 l191 -6 17 -44 c32 -85 46 -198 52 -426 3
-133 2 -228 -3 -228 -5 0 -32 15 -59 33 -56 37 -157 80 -285 122 -210 68 -549
225 -735 339 -60 38 -155 95 -210 129 -55 33 -176 115 -270 182 -93 66 -205
145 -247 175 -43 29 -78 60 -78 68 0 8 29 56 64 107 79 114 106 166 106 203 0
29 16 52 35 52 5 0 36 -11 67 -24z m-1914 -52 c-4 -41 -38 -46 -38 -7 0 32 19
58 33 44 5 -5 7 -21 5 -37z m189 30 c6 -16 -12 -34 -34 -34 -7 0 -13 11 -13
25 0 18 5 25 20 25 11 0 23 -7 27 -16z m-99 -16 c-7 -19 -38 -22 -38 -4 0 10
9 16 21 16 12 0 19 -5 17 -12z m-1786 -43 c8 -19 8 -38 -1 -79 -11 -50 -34
-86 -46 -74 -8 8 -8 133 0 157 9 28 33 27 47 -4z m-454 -49 c4 -54 -12 -83
-34 -65 -27 22 -10 126 19 116 7 -2 13 -25 15 -51z m-588 19 c-7 -8 -16 -15
-21 -15 -5 0 -9 7 -9 15 0 9 9 15 21 15 18 0 19 -2 9 -15z m2707 -7 c8 -6 13
-21 11 -32 -2 -17 -12 -22 -54 -27 -29 -4 -57 -10 -64 -14 -8 -5 -11 1 -8 21
2 22 9 30 26 32 18 3 23 8 19 24 -5 18 -2 20 25 14 17 -3 37 -11 45 -18z
m-1773 -4 c4 -9 1 -23 -6 -32 -20 -24 -89 -52 -131 -52 -33 0 -39 -4 -49 -30
-11 -33 -34 -50 -67 -50 -16 0 -21 6 -21 28 0 45 19 60 130 106 118 49 135 53
144 30z m1506 -21 c32 -13 35 -12 50 8 22 28 64 23 68 -8 5 -37 -28 -59 -101
-66 -61 -6 -165 4 -187 18 -6 3 -10 19 -10 35 0 26 4 29 38 32 50 5 100 -2
142 -19z m-507 -35 c2 -7 1 -21 -2 -31 -6 -17 -8 -17 -20 -3 -14 16 -9 46 8
46 5 0 11 -6 14 -12z m1195 -17 c2 -14 11 -35 19 -48 22 -32 11 -38 -42 -23
-113 32 -128 104 -20 97 34 -2 41 -6 43 -26z m80 2 c-3 -30 -25 -42 -34 -19
-6 17 11 46 28 46 5 0 8 -12 6 -27z m-1868 -13 c-21 -14 -30 -12 -30 4 0 18
22 27 35 14 6 -6 5 -12 -5 -18z m2103 14 c54 -28 93 -62 112 -98 23 -42 15
-66 -24 -66 -21 0 -30 -6 -34 -22 -6 -20 -10 -21 -88 -15 -106 8 -129 23 -129
81 0 47 11 62 50 68 22 3 25 7 22 36 -3 30 -1 32 28 32 17 0 45 -7 63 -16z
m-1363 -53 c0 -6 -11 -23 -25 -38 -20 -23 -24 -25 -25 -10 0 27 18 57 35 57 8
0 15 -4 15 -9z m510 -41 c4 -37 9 -45 30 -50 41 -10 32 -42 -20 -67 -52 -27
-120 -31 -120 -8 0 9 9 25 20 37 10 11 22 42 26 67 7 53 20 73 43 69 11 -2 18
-18 21 -48z m-1485 30 c7 -12 -12 -50 -26 -50 -16 0 -22 29 -9 45 14 17 26 19
35 5z m-1191 -25 c9 -14 29 -28 44 -31 39 -10 52 -23 52 -53 0 -38 -33 -66
-114 -96 -77 -29 -96 -27 -96 10 0 33 -6 32 -59 -10 -60 -48 -77 -46 -85 10
-11 72 4 90 124 146 58 27 108 49 111 49 4 0 14 -11 23 -25z m1365 -30 c42
-48 41 -69 -1 -62 -18 3 -46 10 -61 16 -26 10 -27 12 -13 27 9 8 16 24 16 35
0 29 25 23 59 -16z m958 -30 c-7 -63 -51 -108 -72 -74 -16 24 33 119 61 119
14 0 16 -8 11 -45z m-1291 -10 c7 -18 -13 -45 -33 -45 -17 0 -27 24 -19 45 7
20 45 19 52 0z m1184 2 c0 -19 -21 -131 -26 -139 -15 -24 -54 36 -54 84 0 15
5 18 20 13 15 -5 20 -2 20 12 0 19 18 43 32 43 4 0 8 -6 8 -13z m653 -1 c7
-19 -1 -26 -30 -26 -25 0 -29 10 -11 28 16 16 35 15 41 -2z m223 -67 c3 -6 -7
-25 -24 -41 -30 -30 -30 -30 -41 -10 -9 18 -8 25 9 42 22 22 45 26 56 9z
m-1732 -20 c14 -11 26 -29 26 -39 0 -22 -25 -44 -41 -35 -11 8 -39 67 -39 85
0 16 25 12 54 -11z m-414 2 c0 -12 -29 -35 -36 -28 -11 10 5 37 21 37 8 0 15
-4 15 -9z m-799 -51 c30 -16 23 -38 -20 -60 -22 -11 -59 -43 -83 -72 -76 -91
-147 -164 -174 -178 -39 -21 -54 5 -54 96 0 58 4 76 22 99 21 27 103 70 203
106 59 21 80 23 106 9z m2419 -25 c7 -9 10 -18 7 -21 -10 -10 -47 7 -47 22 0
19 24 18 40 -1z m-904 -30 c9 -23 -15 -48 -32 -34 -10 8 -11 16 -3 30 12 23
28 25 35 4z m-736 -39 c0 -40 -8 -66 -21 -66 -10 0 -12 44 -3 78 9 34 24 26
24 -12z m1318 -3 c-4 -22 -38 -30 -38 -10 0 14 13 24 33 26 5 1 7 -7 5 -16z
m-2005 -62 c78 -82 78 -105 -3 -194 -34 -36 -90 -89 -125 -117 -36 -29 -68
-62 -71 -75 -6 -24 -39 -58 -64 -67 -41 -14 -100 48 -100 105 0 35 12 34 64
-3 44 -32 69 -32 81 -2 5 12 -12 35 -64 83 l-71 65 141 132 c77 73 144 132
148 132 4 0 33 -27 64 -59z m1708 -54 c4 -16 5 -35 2 -43 -6 -17 -53 -19 -54
-1 -2 20 3 62 8 70 10 17 37 1 44 -26z m463 10 c11 -8 17 -23 14 -38 -2 -20
-8 -24 -38 -24 -23 0 -36 -5 -38 -16 -3 -18 25 -45 53 -51 27 -4 30 -40 6 -62
-11 -10 -35 -19 -53 -19 l-33 -2 -3 85 c-2 47 0 95 3 107 7 31 58 43 89 20z
m1264 -29 c4 -46 -31 -118 -57 -118 -39 0 -38 95 2 138 30 32 51 25 55 -20z
m-2007 -70 c23 -43 -12 -191 -41 -173 -6 4 -10 14 -10 23 0 10 -11 34 -25 54
-14 20 -25 47 -25 59 0 53 77 82 101 37z m245 -93 c-2 -27 -7 -64 -11 -82 -7
-32 6 -49 71 -98 17 -12 12 -13 -41 -9 -91 8 -113 20 -127 67 -11 36 -10 41
10 58 14 10 26 36 31 64 5 25 17 55 27 66 18 20 19 20 32 2 9 -12 12 -35 8
-68z m1538 52 c67 -20 58 -43 -14 -37 -27 2 -110 35 -110 44 0 10 83 5 124 -7z
m-554 -22 c0 -23 -18 -27 -29 -7 -6 11 -8 22 -5 25 10 9 34 -4 34 -18z m-3140
-19 c0 -16 -27 -46 -41 -46 -13 0 -22 27 -15 45 7 19 56 20 56 1z m754 -2 c4
-9 4 -19 2 -22 -10 -9 -36 8 -36 23 0 20 26 19 34 -1z m215 -33 c25 -35 26
-47 6 -55 -10 -4 -19 5 -28 27 -8 18 -21 38 -30 46 -9 7 -14 17 -11 22 8 13
40 -7 63 -40z m89 -13 c17 -17 15 -35 -4 -42 -25 -10 -46 12 -33 35 11 22 20
24 37 7z m1700 -20 c-3 -7 -19 -21 -37 -32 -25 -14 -35 -16 -44 -7 -9 10 -7
17 12 32 26 21 75 26 69 7z m-249 -24 c12 -11 12 -20 2 -53 -13 -46 -44 -69
-67 -50 -21 17 -17 26 14 37 l27 9 -41 13 c-38 11 -46 10 -99 -14 -69 -31 -89
-32 -115 -6 -41 41 -17 67 74 80 68 10 187 1 205 -16z m-984 -14 l29 -30 -26
0 c-31 0 -74 32 -64 48 12 19 31 14 61 -18z m-335 -6 c11 -12 11 -18 -2 -31
-19 -18 -38 -10 -38 16 0 33 20 40 40 15z m6958 -7 c5 -24 -15 -21 -28 4 -10
18 -9 20 7 17 10 -2 19 -11 21 -21z m-11033 -10 l70 -12 3 -153 3 -152 -103
-67 c-160 -104 -355 -180 -668 -259 -131 -33 -189 -42 -390 -63 -100 -10 -180
-2 -231 25 -87 45 -154 283 -99 354 18 24 23 25 116 22 184 -5 327 33 502 133
100 57 293 138 417 174 60 18 88 20 190 16 66 -3 152 -11 190 -18z m9830 -3
c325 -45 589 -123 761 -224 111 -66 127 -71 327 -89 87 -7 102 -11 125 -35 24
-24 26 -32 26 -113 -1 -126 -40 -244 -86 -259 -13 -4 -38 -18 -56 -32 -85 -64
-374 -32 -742 84 -204 65 -412 147 -501 199 l-75 45 -12 157 c-16 208 -15 258
2 276 17 16 57 14 231 -9z m-5308 -9 c22 -19 24 -24 11 -25 -9 0 -30 11 -45
25 -22 19 -24 24 -11 25 9 0 30 -11 45 -25z m1011 9 c25 -17 29 -39 8 -47 -24
-9 -66 40 -49 57 9 9 17 7 41 -10z m522 -4 c9 -17 8 -20 -10 -20 -13 0 -20 7
-20 20 0 11 4 20 10 20 5 0 14 -9 20 -20z m-1758 -12 c10 -53 -25 -105 -37
-56 -7 26 9 78 24 78 5 0 11 -10 13 -22z m1881 -59 c21 -17 36 -33 33 -36 -7
-7 -59 23 -80 46 -30 34 3 26 47 -10z m-763 -110 c0 -24 -23 -21 -28 4 -2 10
3 17 12 17 10 0 16 -9 16 -21z m-133 -16 c6 -17 -30 -34 -48 -22 -12 8 -11 12
6 24 21 16 37 15 42 -2z m-693 -106 c43 -62 41 -85 -8 -73 -31 8 -42 27 -51
90 -10 63 5 59 59 -17z m606 -32 c0 -16 -27 -32 -37 -21 -7 7 16 36 28 36 5 0
9 -7 9 -15z m-873 -40 c3 -9 3 -19 -1 -22 -7 -7 -36 16 -36 28 0 15 30 10 37
-6z m1485 -93 c42 -37 92 -87 112 -110 36 -43 48 -92 23 -92 -7 0 -62 29 -122
65 -60 36 -117 65 -126 65 -26 0 -59 48 -59 85 0 18 9 44 21 59 20 25 22 26
47 10 15 -8 62 -45 104 -82z m-694 61 c11 -10 33 -26 50 -35 23 -12 32 -24 32
-43 0 -14 -4 -25 -9 -25 -19 0 -114 96 -107 108 9 16 13 15 34 -5z m-2378 -19
c0 -20 -30 -30 -40 -13 -11 17 7 40 26 32 8 -3 14 -12 14 -19z m2340 -61 c-1
-5 -7 -19 -15 -33 l-14 -25 -1 26 c0 14 3 29 7 32 9 9 23 9 23 0z m-92 -56 c2
-10 -3 -17 -11 -17 -16 0 -30 24 -19 34 10 10 27 1 30 -17z m1973 -2 c-1 -11
-9 -33 -16 -50 -13 -30 -13 -30 -14 23 -1 46 1 53 17 50 11 -2 16 -11 13 -23z
m-2414 -51 c8 -21 -13 -42 -28 -27 -13 13 -5 43 11 43 6 0 13 -7 17 -16z m313
-224 c0 -12 -28 -25 -36 -17 -9 9 6 27 22 27 8 0 14 -5 14 -10z m-56 -116 c9
-22 8 -24 -9 -24 -8 0 -15 9 -15 20 0 24 15 27 24 4z"/>
<path d="M6590 8805 c-13 -16 -6 -35 15 -35 15 0 28 27 19 41 -8 13 -20 11
-34 -6z"/>
<path d="M6261 8366 c-7 -8 -11 -27 -9 -43 l3 -28 18 32 c9 18 17 37 17 43 0
15 -16 12 -29 -4z"/>
<path d="M6297 7860 c-68 -60 -140 -170 -111 -170 17 0 45 24 65 57 13 21 37
56 54 78 18 22 35 46 39 53 13 22 -13 13 -47 -18z"/>
<path d="M6430 7870 c0 -15 5 -20 18 -18 9 2 17 10 17 18 0 8 -8 16 -17 18
-13 2 -18 -3 -18 -18z"/>
<path d="M5388 7760 c-27 -20 -55 -76 -45 -87 10 -9 87 72 87 91 0 21 -12 20
-42 -4z"/>
<path d="M6260 7645 c-14 -17 -5 -48 13 -43 14 5 23 58 9 58 -5 0 -15 -7 -22
-15z"/>
<path d="M6272 7547 c-21 -22 -31 -77 -14 -77 23 1 52 45 52 79 0 27 -11 26
-38 -2z"/>
<path d="M6192 7428 c-18 -18 -15 -40 6 -36 9 2 18 13 20 26 4 24 -7 29 -26
10z"/>
<path d="M5368 7409 c-24 -13 -23 -29 2 -29 13 0 20 7 20 20 0 23 1 23 -22 9z"/>
<path d="M8091 8604 c-47 -20 -29 -36 40 -36 53 1 88 20 75 41 -10 16 -75 13
-115 -5z"/>
<path d="M7642 7723 c-24 -36 -34 -63 -22 -63 10 0 43 46 53 73 10 26 -9 20
-31 -10z"/>
<path d="M8397 7080 c6 -24 19 -34 33 -25 14 8 -6 45 -24 45 -9 0 -12 -7 -9
-20z"/>
<path d="M9297 5944 c-13 -13 11 -39 156 -171 84 -75 224 -206 312 -290 175
-165 278 -253 300 -253 8 0 27 -19 44 -42 44 -65 210 -222 260 -248 25 -12 69
-38 97 -57 48 -32 74 -36 74 -13 0 5 -47 46 -104 92 -58 46 -223 194 -368 329
-145 136 -303 281 -353 325 -49 43 -124 110 -165 148 -98 90 -218 186 -234
186 -7 0 -15 -3 -19 -6z"/>
<path d="M9950 5045 c0 -25 46 -101 65 -109 24 -9 75 21 75 44 0 24 -61 67
-108 76 -26 5 -32 3 -32 -11z"/>
<path d="M7870 6065 c-17 -21 -80 -167 -80 -187 0 -31 26 -19 49 22 23 42 61
144 61 167 0 17 -14 17 -30 -2z"/>
<path d="M7567 5982 c-20 -22 -26 -63 -11 -69 11 -4 44 54 44 76 0 16 -15 13
-33 -7z"/>
<path d="M5001 6298 c-50 -51 -63 -78 -38 -78 6 0 19 11 28 23 28 39 69 107
65 107 -2 0 -27 -23 -55 -52z"/>
<path d="M5074 6228 c-36 -40 -131 -205 -122 -213 6 -6 88 93 135 163 65 96
56 126 -13 50z"/>
<path d="M5380 6003 c-42 -44 -70 -80 -70 -93 l0 -21 28 20 c31 22 92 92 111
129 25 48 -1 34 -69 -35z"/>
<path d="M5183 5958 c-33 -37 -56 -78 -48 -86 8 -8 72 64 79 90 6 24 -6 23
-31 -4z"/>
<path d="M4994 5217 c-3 -9 -3 -25 0 -34 6 -15 8 -15 24 0 15 16 15 18 0 34
-16 15 -18 15 -24 0z"/>
<path d="M4765 4897 c-19 -30 -10 -59 19 -55 17 2 21 10 21 37 0 42 -18 50
-40 18z"/>
<path d="M5310 4823 c0 -18 2 -33 4 -33 9 0 13 39 5 51 -6 10 -9 4 -9 -18z"/>
<path d="M4757 4673 c-4 -3 -7 -20 -7 -37 0 -35 15 -25 25 17 7 25 -3 36 -18
20z"/>
<path d="M5383 4573 c-17 -6 -119 -164 -149 -228 -41 -86 -25 -195 21 -149 12
12 16 31 14 73 -3 53 -2 56 22 59 38 4 52 -30 57 -141 4 -89 2 -102 -17 -128
-22 -30 -28 -59 -11 -59 23 0 93 43 130 80 37 37 40 44 40 94 0 30 -4 67 -10
81 -8 22 -15 26 -42 23 l-33 -3 -3 83 c-2 60 2 92 13 114 19 40 19 72 -1 92
-8 9 -16 16 -17 15 -1 0 -8 -3 -14 -6z"/>
<path d="M7285 4820 c-8 -13 3 -50 15 -50 15 0 22 19 15 40 -7 22 -20 26 -30
10z"/>
<path d="M5023 3079 c3 -13 9 -61 13 -107 7 -83 22 -121 42 -108 30 18 -12
223 -47 234 -10 3 -12 -2 -8 -19z"/>
<path d="M5137 2763 c-13 -12 -7 -41 12 -64 16 -20 21 -21 35 -10 9 7 16 24
16 37 0 30 -44 56 -63 37z"/>
<path d="M8184 3021 c16 -31 46 -49 46 -28 0 20 -30 57 -46 57 -13 0 -13 -4 0
-29z"/>
<path d="M6919 10683 c-28 -26 -55 -56 -61 -66 -9 -18 -6 -17 32 4 46 26 90
72 90 95 0 21 -7 18 -61 -33z"/>
<path d="M8340 9208 c-53 -27 -145 -112 -136 -127 12 -18 188 63 232 107 15
14 15 17 -2 29 -25 18 -42 16 -94 -9z"/>
<path d="M7974 1965 c-9 -21 14 -45 43 -45 28 0 40 24 23 45 -16 19 -59 19
-66 0z"/>
<path d="M7463 1933 c-18 -6 -4 -33 17 -33 10 0 66 -31 124 -70 159 -105 226
-133 226 -97 0 46 -315 218 -367 200z"/>
</g>
</svg>
