<?xml version="1.0" encoding="UTF-8" standalone="no"?>
<!DOCTYPE svg PUBLIC "-//W3C//DTD SVG 1.1//EN" "http://www.w3.org/Graphics/SVG/1.1/DTD/svg11.dtd">
<svg width="100%" height="100%" viewBox="0 0 418 521" version="1.1" xmlns="http://www.w3.org/2000/svg" xmlns:xlink="http://www.w3.org/1999/xlink" xml:space="preserve" xmlns:serif="http://www.serif.com/" style="fill-rule:evenodd;clip-rule:evenodd;stroke-linejoin:round;stroke-miterlimit:2;">
    <g transform="matrix(1.2605,0,0,1.2605,0,0)">
        <g transform="matrix(3.31,0,0,3.304,0,0)">
            <path d="M61.8,83.51L61.8,83.44C61.8,74.3 61.65,51.54 61.53,45.12L61.53,43.47C61.38,42.16 60.12,39.93 58.34,36.93C57.654,35.844 57.039,34.715 56.5,33.55C56.35,32.494 56.3,31.426 56.35,30.36C56.379,28.301 56.262,26.242 56,24.2C55.73,22.41 54.56,15.85 54.26,14.28C54.674,13.85 54.907,13.277 54.91,12.68C54.907,12.302 54.818,11.929 54.65,11.59C54.998,11.248 55.174,10.766 55.13,10.28C55.105,9.943 54.991,9.619 54.8,9.34C54.964,9.034 55.034,8.686 55,8.34C54.819,7.236 53.887,6.4 52.77,6.34C51.504,6.211 50.231,6.171 48.96,6.22L48.47,6.22C47.202,6.197 45.934,6.237 44.67,6.34C43.552,6.396 42.617,7.235 42.44,8.34C42.406,8.686 42.476,9.034 42.64,9.34C42.446,9.618 42.328,9.942 42.3,10.28C42.265,10.765 42.44,11.242 42.78,11.59C42.62,11.931 42.535,12.303 42.53,12.68C42.535,13.275 42.764,13.846 43.17,14.28C42.88,15.85 41.7,22.42 41.44,24.2C41.189,26.237 41.082,28.288 41.12,30.34C41.173,31.405 41.133,32.472 41,33.53C40.446,34.696 39.811,35.822 39.1,36.9C37.33,39.9 36.1,42.14 35.91,43.45L35.91,45.1C35.78,51.52 35.67,74.28 35.64,83.42C35.636,83.443 35.636,83.467 35.64,83.49C35.644,83.513 35.64,83.49 35.64,83.57L35.64,87.26C35.64,88.44 35.84,90.56 37.21,91.55C38.979,92.532 40.958,93.077 42.98,93.14C44.48,93.26 46.76,93.39 48.46,93.39L48.76,93.39C50.76,93.39 53.32,93.24 54.54,93.14C57.66,92.9 59.41,92.4 60.4,91.46C61.458,90.329 61.992,88.804 61.87,87.26L61.87,83.57C61.79,83.56 61.8,83.54 61.8,83.51ZM37.8,46.11L59.5,46.11C59.6,53.11 59.71,73.2 59.75,82.51L37.59,82.51C37.63,73.2 37.73,53.12 37.84,46.11L37.8,46.11ZM45,8.33C45.21,8.33 46.25,8.25 48.46,8.24L48.95,8.24C51.02,8.24 52.18,8.24 52.42,8.33C52.598,8.358 52.771,8.416 52.93,8.5L52.86,8.55C52.491,8.738 52.275,9.138 52.32,9.55C52.342,9.829 52.48,10.087 52.7,10.26L44.7,10.26C44.916,10.092 45.053,9.842 45.08,9.57C45.123,9.155 44.903,8.755 44.53,8.57L44.46,8.52C44.626,8.422 44.809,8.358 45,8.33ZM40.82,37.92C41.598,36.715 42.267,35.443 42.82,34.12C43.048,32.877 43.125,31.611 43.05,30.35C43.015,28.392 43.112,26.435 43.34,24.49C43.65,22.49 45.04,14.76 45.12,14.41C45.225,13.898 45.063,13.366 44.69,13C44.51,12.79 44.5,12.75 44.5,12.67C44.517,12.504 44.583,12.348 44.69,12.22L52.69,12.22C52.802,12.345 52.872,12.503 52.89,12.67C52.89,12.75 52.89,12.79 52.69,13C52.313,13.356 52.139,13.879 52.23,14.39C52.31,14.73 53.7,22.44 54,24.47C54.233,26.414 54.33,28.372 54.29,30.33C54.217,31.592 54.297,32.858 54.53,34.1C55.081,35.424 55.751,36.696 56.53,37.9C57.65,39.8 59.34,42.66 59.45,43.65C59.459,43.797 59.459,43.943 59.45,44.09L37.88,44.09L37.88,43.65C38,42.68 39.7,39.82 40.82,37.92ZM59,90C58.1,90.85 55.28,91.07 54.35,91.14C53.17,91.23 50.69,91.37 48.72,91.38C47.05,91.38 44.66,91.26 43.1,91.14C41.439,91.119 39.803,90.73 38.31,90C37.719,89.244 37.453,88.283 37.57,87.33L37.57,84.56L59.8,84.56L59.8,87.33C59.873,88.288 59.588,89.24 59,90Z" style="fill-rule:nonzero;"/>
        </g>
    </g>
</svg>
