<?xml version="1.0" encoding="UTF-8" standalone="no"?>
<!DOCTYPE svg PUBLIC "-//W3C//DTD SVG 1.1//EN" "http://www.w3.org/Graphics/SVG/1.1/DTD/svg11.dtd">
<svg width="100%" height="100%" viewBox="0 0 459 563" version="1.1" xmlns="http://www.w3.org/2000/svg" xmlns:xlink="http://www.w3.org/1999/xlink" xml:space="preserve" xmlns:serif="http://www.serif.com/" style="fill-rule:evenodd;clip-rule:evenodd;stroke-linejoin:round;stroke-miterlimit:2;">
    <g transform="matrix(1.1583,0,0,1.1583,0,0)">
        <g transform="matrix(3.6,0,0,3.6,18,36)">
            <path d="M23.039,45.105L23.039,14.25C20.922,13.641 19.375,11.687 19.375,9.371C19.375,6.566 21.648,4.293 24.453,4.293L75.519,4.293C78.324,4.293 80.597,6.566 80.597,9.371C80.597,11.684 79.05,13.637 76.933,14.25L76.933,45.105C79.05,45.714 80.597,47.667 80.597,49.984C80.597,52.296 79.05,54.25 76.933,54.863L76.933,85.718C79.05,86.327 80.597,88.28 80.597,90.597C80.597,93.401 78.324,95.675 75.519,95.675L24.453,95.675C21.648,95.675 19.375,93.401 19.375,90.597C19.375,88.284 20.922,86.331 23.039,85.718L23.039,54.863C20.922,54.253 19.375,52.3 19.375,49.984C19.375,47.671 20.922,45.718 23.039,45.105ZM73.023,44.906L73.023,14.445L26.945,14.445L26.945,44.906L73.023,44.906ZM24.449,51.156L75.515,51.156C76.163,51.156 76.687,50.632 76.687,49.984C76.687,49.335 76.163,48.812 75.515,48.812L24.449,48.812C23.801,48.812 23.277,49.335 23.277,49.984C23.277,50.632 23.801,51.156 24.449,51.156ZM26.945,55.062L26.945,85.523L73.023,85.523L73.023,55.062L26.945,55.062ZM24.449,10.546L75.515,10.546C76.163,10.546 76.687,10.023 76.687,9.374C76.687,8.726 76.163,8.202 75.515,8.202L24.449,8.202C23.801,8.202 23.277,8.726 23.277,9.374C23.277,10.023 23.801,10.546 24.449,10.546ZM75.515,89.429L24.449,89.429C23.801,89.429 23.277,89.952 23.277,90.601C23.277,91.249 23.801,91.773 24.449,91.773L75.515,91.773C76.163,91.773 76.687,91.249 76.687,90.601C76.687,89.952 76.163,89.429 75.515,89.429Z"/>
        </g>
    </g>
</svg>
